<svg id="Layer_1" data-name="Layer 1" xmlns="http://www.w3.org/2000/svg" viewBox="0 0 291.39 75.39"><defs><style>.cls-1{fill:#172955}</style></defs><path class="cls-1" d="M61.39 6.87l-5.78 5.79-5.78-5.79-37.7 37.7 37.7 37.7 5.78-5.79 5.78 5.79 37.7-37.7zM49.83 80.48L13.91 44.57 49.83 8.66l4.87 4.87-30.41 30.41-.61.61 31 31zm6.67-4.89l31-31-31-31 4.89-4.89 35.92 35.87-35.92 35.91zm49.31-33.33v-.9l.9-.19c.42-.08.84-.17 1.25-.28l.24-.15a4.15 4.15 0 0 0 .12-1v-7.96l-.15-4.11a3 3 0 0 0-1.19-.35 5.6 5.6 0 0 1-.71-.19l-.3-.08v-.86l1.62.06c1 .1 2.43.15 4.34.15 1 0 2 0 3-.07h1.6l2.19-.08h.84a6.26 6.26 0 0 1 .1.74l.18 2.31a1.69 1.69 0 0 1-.07.57 5.46 5.46 0 0 1-.65.06.68.68 0 0 1-.4-.11 2.89 2.89 0 0 1-.28-.56 3.53 3.53 0 0 0-.88-1.47 5.16 5.16 0 0 0-2-.22l-1.69.05a10.62 10.62 0 0 0-1.71.12l-.39.12a1.44 1.44 0 0 0-.16.73v3.14a7.76 7.76 0 0 0 .09 1.58.5.5 0 0 0 .18.09h2.34a14.26 14.26 0 0 0 1.51-.12 2.54 2.54 0 0 0 .86-.2 1.15 1.15 0 0 0 .43-.5 5.91 5.91 0 0 0 .19-1.47h1.1l-.07 2v3.54a1.58 1.58 0 0 1-.38 0 3.43 3.43 0 0 1-.48-.07 4.42 4.42 0 0 1-.25-.68c-.19-.65-.39-1-.61-1.13a12.44 12.44 0 0 0-3.71-.29 7 7 0 0 0-1 .08 7 7 0 0 0-.09 1.19l.06 3.69a2.32 2.32 0 0 0 .22 1.26 2.05 2.05 0 0 0 .93.29h.24a4.36 4.36 0 0 1 1 .16l.33.07a2.76 2.76 0 0 1 .05.5 4.54 4.54 0 0 1 0 .47h-.62L112 42.1h-2.76a10.64 10.64 0 0 0-1.29.08l-1.06.11zm24.7-9.04a4.8 4.8 0 0 1 1.18 1.78 5.09 5.09 0 0 1 .39 1.86 5.92 5.92 0 0 1-.51 2.66 5.12 5.12 0 0 1-2 2.25 6.12 6.12 0 0 1-3 .72 5.81 5.81 0 0 1-3.25-.86 5.28 5.28 0 0 1-1.91-2 5.85 5.85 0 0 1-.58-2.72 5.29 5.29 0 0 1 .28-1.65 4.61 4.61 0 0 1 .74-1.45 5.33 5.33 0 0 1 1-1 5.57 5.57 0 0 1 1.66-.85 7.25 7.25 0 0 1 2-.25 5.26 5.26 0 0 1 4 1.51zm-6.72 4.25c.07 1 .13 1.6.16 1.76a4.26 4.26 0 0 0 .5 1.41 2 2 0 0 0 .78.68 2.62 2.62 0 0 0 1.29.3A2.1 2.1 0 0 0 128 41a3.39 3.39 0 0 0 .89-1.79 14.42 14.42 0 0 0 .17-2.62 5.2 5.2 0 0 0-.74-3.17 2.36 2.36 0 0 0-1.94-.93 2.3 2.3 0 0 0-1.57.53 2.89 2.89 0 0 0-.87 1.56 16.42 16.42 0 0 0-.15 2.89zm9.67 4.09a.93.93 0 0 1 .41-.2 3.9 3.9 0 0 0 1.2-.49 9.63 9.63 0 0 0 .11-2 41.28 41.28 0 0 0-.14-4.2.54.54 0 0 0-.19-.35 4.1 4.1 0 0 0-.84-.28.37.37 0 0 1-.3-.27v-.45a3.94 3.94 0 0 0 1.64-.62 4.3 4.3 0 0 0 1.11-1 3 3 0 0 1 .35-.43h.86a2.4 2.4 0 0 1 .06.47v2.05a11.87 11.87 0 0 1 .73-1.16 7.46 7.46 0 0 1 .66-.6 1.56 1.56 0 0 1 .94-.31 1.59 1.59 0 0 1 1.13.45 1.34 1.34 0 0 1 .48 1 1.66 1.66 0 0 1-.36 1 1.18 1.18 0 0 1-1 .46 1.81 1.81 0 0 1-1.11-.45 1 1 0 0 0-.55-.27h-.09a.9.9 0 0 0-.47.46 2.58 2.58 0 0 0-.34 1.28v.33c0 .6.06 2 .08 4.25a1.39 1.39 0 0 0 .23.61 1.45 1.45 0 0 0 .45.25 3.76 3.76 0 0 0 .79.12 1.59 1.59 0 0 1 .69.16.43.43 0 0 1 .12.34 1.18 1.18 0 0 1-.07.36h-1.14l-2.35-.07a15.75 15.75 0 0 0-1.61.08h-.21l-1.27.06a1.52 1.52 0 0 1 0-.31 1.3 1.3 0 0 1 0-.27zm8.68-14.2l1.05-.39c.26-.1.95-.44 2.06-1h.54a2.12 2.12 0 0 1 .37 0V27l.07 4.63v1.78a5.86 5.86 0 0 1 .95-.83 6.17 6.17 0 0 1 .67-.35 4.37 4.37 0 0 1 .89-.34 4.68 4.68 0 0 1 1-.13 5.52 5.52 0 0 1 2 .3 4.56 4.56 0 0 1 1.45 1 5 5 0 0 1 1.15 1.84 4.94 4.94 0 0 1 .3 1.83 6 6 0 0 1-.24 1.58 6.15 6.15 0 0 1-.78 1.72 5.55 5.55 0 0 1-1.12 1.18 6 6 0 0 1-1.65.92 6.48 6.48 0 0 1-2.1.23 6.16 6.16 0 0 1-3.07-1 7.35 7.35 0 0 0-.64-.37c-.16.23-.34.52-.54.86s-.34.56-.42.66h-.61v-12.1a10.46 10.46 0 0 0-.09-1.76.22.22 0 0 0-.09-.17 12 12 0 0 0-1.27-.5zm4.11 6.74v1.92a25.2 25.2 0 0 0 .16 3.81 1.85 1.85 0 0 0 .82 1.09 2.39 2.39 0 0 0 1.4.46 2.78 2.78 0 0 0 1.08-.22 2.57 2.57 0 0 0 .82-.49 2.79 2.79 0 0 0 .64-.86 4.59 4.59 0 0 0 .42-1.31 9 9 0 0 0 .11-1.29 5.08 5.08 0 0 0-.41-2 3.05 3.05 0 0 0-1.16-1.47 2.83 2.83 0 0 0-1.61-.49 3.33 3.33 0 0 0-1.28.31 3.48 3.48 0 0 0-.99.54zm10.35 1.56a5.55 5.55 0 0 1 .57-1.4 6.22 6.22 0 0 1 1.47-1.57 4.65 4.65 0 0 1 1.41-.75 4.88 4.88 0 0 1 1.31-.24 7.86 7.86 0 0 1 1.87.18 3.62 3.62 0 0 1 1.19.51 5.75 5.75 0 0 1 1.11 1 3.9 3.9 0 0 1 .68 1.16 4.45 4.45 0 0 1 .29 1.61h-1.36c-.38 0-1.21 0-2.49-.11-.47 0-.8-.06-1-.06h-2.39v.29a6.16 6.16 0 0 0 .16 1.38 4.35 4.35 0 0 0 .48 1.27 3.44 3.44 0 0 0 .79.94 3.09 3.09 0 0 0 1 .57l.71.23a8.48 8.48 0 0 0 1.27-.06 5.33 5.33 0 0 0 1-.31 6 6 0 0 0 1.09-.65c.29.22.54.41.74.58a7.13 7.13 0 0 1-2.25 1.73 6.07 6.07 0 0 1-2.6.53 5.85 5.85 0 0 1-1.59-.17 4.81 4.81 0 0 1-1.49-.68 4.53 4.53 0 0 1-1.14-1.13 5.78 5.78 0 0 1-1-2.89 10.19 10.19 0 0 1 .17-1.96zm7.15-.53a3.7 3.7 0 0 0-.27-1.32 2.12 2.12 0 0 0-1.9-1.33 2 2 0 0 0-1.48.72 3.14 3.14 0 0 0-.76 2h4.08zm4.72 3.61a3.3 3.3 0 0 1 .54-.08h.26l.11.12a11.79 11.79 0 0 0 .87 1.41 5.36 5.36 0 0 0 .85.82 4 4 0 0 0 .89.4 2.47 2.47 0 0 0 .86.15 1.93 1.93 0 0 0 1.33-.5 1.43 1.43 0 0 0 .55-1.08 1.09 1.09 0 0 0-.21-.67 2.18 2.18 0 0 0-.83-.54 13.8 13.8 0 0 0-1.55-.45c-.82-.2-1.32-.34-1.49-.4a3.26 3.26 0 0 1-1-.62 2.58 2.58 0 0 1-.68-.88 2.91 2.91 0 0 1-.32-1.21 3.74 3.74 0 0 1 .27-1.53 3.14 3.14 0 0 1 .76-1.05 3.34 3.34 0 0 1 1.08-.63 4.13 4.13 0 0 1 1.54-.28 11.49 11.49 0 0 1 2.06.16 5.51 5.51 0 0 1 1.5.48c0 .19.11.62.2 1.3s.14 1.09.14 1.21a.39.39 0 0 1 0 .18 1.73 1.73 0 0 1-.53.1h-.35l-.3-.52a4.53 4.53 0 0 0-1.21-1.54 2.36 2.36 0 0 0-1.43-.45 2.12 2.12 0 0 0-1.43.49 1.15 1.15 0 0 0 0 1.8 3 3 0 0 0 1.5.65 11.84 11.84 0 0 1 2.38.71 3.44 3.44 0 0 1 1.55 1.22 3 3 0 0 1 .46 1.62 3 3 0 0 1-1.08 2.38 4.59 4.59 0 0 1-3.14 1c-.18 0-.66 0-1.42-.12a9.59 9.59 0 0 1-1.22-.24l-.89-.36a.42.42 0 0 1-.19-.18 5.14 5.14 0 0 1-.17-1 22 22 0 0 1-.26-1.87zm16.72 2.68a2.56 2.56 0 0 1 .94-.25 5.06 5.06 0 0 0 1.13-.27 2.18 2.18 0 0 0 .08-.35v-3.93l.05-1.47v-4.32q0-2.56-.06-3.27l-.73-.15c-.67 0-1.11-.08-1.33-.12v-.88a7.78 7.78 0 0 1 1.13-.09h1.14l1 .08h.65l1.54-.07a29.33 29.33 0 0 1 3-.15 6 6 0 0 1 4 1.28 3.83 3.83 0 0 1 1.49 3 3.54 3.54 0 0 1-.81 2.26 5 5 0 0 1-2.41 1.42q.15.26.39.6c.35.49.63.91.84 1.25l2 3.19a9.69 9.69 0 0 0 1 1.48 3.14 3.14 0 0 0 .94.48 3.75 3.75 0 0 1 .85.41 1.18 1.18 0 0 1 .08.37v.29h-.58l-.64-.09h-.51a6.51 6.51 0 0 0-1-.06h-1.23l-.86.09-.53.06-.42-.82c-.34-.61-.58-1.07-.72-1.37-.36-.8-1-2.07-1.86-3.8a4.86 4.86 0 0 0-.86-1.37 2.34 2.34 0 0 0-1.27-.26h-.83a7 7 0 0 0 0 .85l.06 2.73-.07 2.31a2.94 2.94 0 0 0 .9.32 9.9 9.9 0 0 1 1.64.47 5.38 5.38 0 0 1-.05.91h-.79a58.5 58.5 0 0 0-3.14-.24h-.46l-1.69.11a12.28 12.28 0 0 1-1.42.08h-.53v-.39a2.12 2.12 0 0 1-.05-.32zm5.53-8h.86a4.59 4.59 0 0 0 3-.75 2.52 2.52 0 0 0 .87-2 4.65 4.65 0 0 0-.22-1.46 2.57 2.57 0 0 0-.53-1 2.9 2.9 0 0 0-1.19-.73 6 6 0 0 0-1.73-.18 6.7 6.7 0 0 0-1 .06v5.7zm11.81 2.24a5.64 5.64 0 0 1 .56-1.4 6.22 6.22 0 0 1 1.47-1.57 4.65 4.65 0 0 1 1.41-.75 4.88 4.88 0 0 1 1.32-.24 7.92 7.92 0 0 1 1.87.18 3.72 3.72 0 0 1 1.19.51 5.75 5.75 0 0 1 1.11 1 4.38 4.38 0 0 1 .68 1.16 4.93 4.93 0 0 1 .29 1.61h-1.37c-.37 0-1.2 0-2.48-.11q-.72-.06-1-.06h-2.38a1.68 1.68 0 0 0 0 .29 6.8 6.8 0 0 0 .16 1.38 4.66 4.66 0 0 0 .48 1.27 3.47 3.47 0 0 0 .8.94 3 3 0 0 0 1 .57l.72.23a8.32 8.32 0 0 0 1.26-.06 5.13 5.13 0 0 0 1-.31 5.71 5.71 0 0 0 1.09-.65c.3.22.54.41.74.58a7.09 7.09 0 0 1-2.24 1.73 6.15 6.15 0 0 1-2.61.53 5.82 5.82 0 0 1-1.58-.17 4.71 4.71 0 0 1-1.49-.68 4.53 4.53 0 0 1-1.14-1.13 5.67 5.67 0 0 1-1-2.89 9.39 9.39 0 0 1 .14-1.96zm7.14-.53a3.7 3.7 0 0 0-.27-1.32 2 2 0 0 0-.8-1 1.89 1.89 0 0 0-2.58.37 3.19 3.19 0 0 0-.75 2h4.07zm4.33-2.28a7.66 7.66 0 0 0 2.1-1.2 7.56 7.56 0 0 0 1.38-1.92h.69a1.94 1.94 0 0 1 .11.68v2.01h2.36a2.68 2.68 0 0 1 .07.59 2.87 2.87 0 0 1-.09.66 3.51 3.51 0 0 1-.61.07l-.39-.05h-1.46v4.69a10.64 10.64 0 0 0 .06 1.71 1.65 1.65 0 0 0 .28.64 1.68 1.68 0 0 0 1.12.08 2.4 2.4 0 0 0 .54-.36l.24-.17a3.07 3.07 0 0 1 .48.47v.14a3 3 0 0 1-1.21 1.07 3.68 3.68 0 0 1-1.67.38 2.52 2.52 0 0 1-1.86-.72 3.11 3.11 0 0 1-.71-2.25v-5.66h-1.27l-.16-.06a.35.35 0 0 1-.07-.21s.07-.27.07-.59zm7.54 9.33v-.8l1.39-.18a.77.77 0 0 0 .42-.25 1.51 1.51 0 0 0 .12-.75v-5.44a4.26 4.26 0 0 0-.07-.78 1 1 0 0 0-.49-.32 4.93 4.93 0 0 0-1.26-.2v-.69a6 6 0 0 0 2.23-.53 5.13 5.13 0 0 0 1.42-1h.82c0 1 .05 2.33.05 4l-.09 5a8.75 8.75 0 0 0 0 .94 7.89 7.89 0 0 0 1.24.27 2.47 2.47 0 0 1 .53.12v.68h-1.06c-.83 0-2-.06-3.35-.06h-1.17l-.73-.01zm1.72-14.67a1.49 1.49 0 0 1 .43-1.09 1.53 1.53 0 0 1 1.11-.42 1.75 1.75 0 0 1 1.21.44 1.37 1.37 0 0 1 .48 1 2 2 0 0 1-.2.84 1.48 1.48 0 0 1-.6.67 1.64 1.64 0 0 1-.84.25 1.51 1.51 0 0 1-1.09-.51 1.64 1.64 0 0 1-.5-1.18zm5.45 14.05a1 1 0 0 1 .42-.2 3.75 3.75 0 0 0 1.19-.49 8.9 8.9 0 0 0 .11-2c0-2.07 0-3.47-.13-4.2a.55.55 0 0 0-.2-.35 3.78 3.78 0 0 0-.83-.28.35.35 0 0 1-.3-.27v-.45a3.93 3.93 0 0 0 1.65-.62 4.66 4.66 0 0 0 1.11-1 3.06 3.06 0 0 1 .34-.43h.86a2.54 2.54 0 0 1 .07.47v2.05a11.38 11.38 0 0 1 .74-1.16 6.75 6.75 0 0 1 .65-.6 1.63 1.63 0 0 1 2.08.14 1.34 1.34 0 0 1 .48 1 1.66 1.66 0 0 1-.36 1 1.19 1.19 0 0 1-1 .46 1.8 1.8 0 0 1-1.1-.45 1 1 0 0 0-.56-.27h-.08a.86.86 0 0 0-.47.46 2.6 2.6 0 0 0-.35 1.28v.33c0 .6.06 2 .07 4.25a1.55 1.55 0 0 0 .24.61 1.26 1.26 0 0 0 .45.25 3.76 3.76 0 0 0 .79.12 1.59 1.59 0 0 1 .69.16.43.43 0 0 1 .12.34 1.18 1.18 0 0 1-.07.36h-1.16l-2.35-.07a15.61 15.61 0 0 0-1.61.08h-.2l-1.28.06a2.39 2.39 0 0 1 0-.31 2 2 0 0 1-.01-.27zm9.48-5.9a6 6 0 0 1 .57-1.4 6.22 6.22 0 0 1 1.47-1.57 4.65 4.65 0 0 1 1.41-.75 4.88 4.88 0 0 1 1.36-.24 7.86 7.86 0 0 1 1.87.18 3.68 3.68 0 0 1 1.2.51 5.66 5.66 0 0 1 1.1 1 4.15 4.15 0 0 1 .69 1.16 4.93 4.93 0 0 1 .29 1.61h-1.37c-.38 0-1.21 0-2.48-.11q-.72-.06-1-.06h-2.38a1.68 1.68 0 0 0 0 .29 6.16 6.16 0 0 0 .16 1.38 4.66 4.66 0 0 0 .48 1.27 3.44 3.44 0 0 0 .79.94 3.2 3.2 0 0 0 1 .57l.72.23a8.32 8.32 0 0 0 1.26-.06 5.13 5.13 0 0 0 1-.31 6 6 0 0 0 1.09-.65c.29.22.54.41.74.58a7 7 0 0 1-2.25 1.73 6.07 6.07 0 0 1-2.6.53 5.72 5.72 0 0 1-1.58-.17 4.71 4.71 0 0 1-1.49-.68 4.41 4.41 0 0 1-1.24-1.16 5.23 5.23 0 0 1-.71-1.39 4.92 4.92 0 0 1-.31-1.5 10.19 10.19 0 0 1 .21-1.93zm7.15-.53a3.7 3.7 0 0 0-.27-1.32 2.12 2.12 0 0 0-1.89-1.33 2 2 0 0 0-1.49.72 3.08 3.08 0 0 0-.75 2h4.07zm4.18 6.23a.67.67 0 0 1 .27-.06A3.32 3.32 0 0 0 251 41a.18.18 0 0 0 .1-.16c0-.08 0-.83.07-2.24v-3.54a1.24 1.24 0 0 0-.26-.86 3.66 3.66 0 0 0-1.39-.59v-.51l.48-.1a6.68 6.68 0 0 0 1.87-.66 4.58 4.58 0 0 0 1.11-1h.68v1.88a8 8 0 0 1 2.03-1.22 5 5 0 0 1 1.79-.3 4.44 4.44 0 0 1 1.88.42 3.52 3.52 0 0 1 1.5 1.4 8.06 8.06 0 0 1 1.47-1.18 4.34 4.34 0 0 1 1.11-.41 5.43 5.43 0 0 1 1.33-.18 3.63 3.63 0 0 1 2.71 1 4 4 0 0 1 1 2.83v4.97a.85.85 0 0 0 .15.48 3.69 3.69 0 0 0 .82.27 1.22 1.22 0 0 1 .47.17 1.68 1.68 0 0 0 .06.37v.25a3.36 3.36 0 0 1-.5.06l-.59-.05a10.82 10.82 0 0 0-1.26-.06c-1.24 0-2.23 0-2.95.11a1.77 1.77 0 0 1-.09-.49v-.17c.11-.06.46-.2 1.06-.42a.54.54 0 0 0 .18-.28 8.84 8.84 0 0 0 .06-1.32l-.1-3.47a7.08 7.08 0 0 0-.13-1.44 2.35 2.35 0 0 0-.36-.9 2 2 0 0 0-1.5-.74 3 3 0 0 0-1.4.38 3.78 3.78 0 0 0-1.27 1.17V40c0 .55.05.87.16 1a2.27 2.27 0 0 0 1.2.34l.38.12a1.37 1.37 0 0 1 .1.45 1.13 1.13 0 0 1-.05.3h-1.1a17.48 17.48 0 0 0-1.81-.1h-1.31c-.32 0-.87 0-1.66.11h-.22v-.74a7.1 7.1 0 0 1 1.33-.17h.16a.81.81 0 0 0 .16-.27 5.28 5.28 0 0 0 .06-1v-3.16a12.08 12.08 0 0 0-.13-2.38 1.79 1.79 0 0 0-.72-1 2.3 2.3 0 0 0-1.32-.38 3.16 3.16 0 0 0-1.74.48 1.9 1.9 0 0 0-.85.84 2 2 0 0 0 0 .22v.25a1.3 1.3 0 0 1-.08.34v5.25a1.78 1.78 0 0 0 0 .32l.06.18.58.16a2.86 2.86 0 0 1 .69.21 2.44 2.44 0 0 1 0 .3 1.74 1.74 0 0 1-.09.45h-.29c-.09 0-.5 0-1.23-.1h-1.34c-.64 0-1.41 0-2.32.13h-.36v-.45a1.23 1.23 0 0 1 .13-.34zm21.73-5.7a6 6 0 0 1 .57-1.4 6.22 6.22 0 0 1 1.47-1.57 4.65 4.65 0 0 1 1.41-.75 4.88 4.88 0 0 1 1.3-.24 7.86 7.86 0 0 1 1.87.18 3.68 3.68 0 0 1 1.2.51 5.66 5.66 0 0 1 1.1 1 4.15 4.15 0 0 1 .69 1.16 4.93 4.93 0 0 1 .29 1.61h-1.37c-.38 0-1.21 0-2.48-.11q-.72-.06-1-.06L275 36h-1.05a1.68 1.68 0 0 0 0 .29 6.16 6.16 0 0 0 .16 1.38 4.66 4.66 0 0 0 .48 1.27 3.44 3.44 0 0 0 .79.94 3.2 3.2 0 0 0 1 .57l.72.23a8.32 8.32 0 0 0 1.26-.06 5.13 5.13 0 0 0 1-.31 6 6 0 0 0 1.09-.65c.29.22.54.41.74.58a7 7 0 0 1-2.25 1.73 6.07 6.07 0 0 1-2.6.53 5.77 5.77 0 0 1-1.58-.17 4.71 4.71 0 0 1-1.49-.68 4.41 4.41 0 0 1-1.15-1.13 5.23 5.23 0 0 1-.71-1.39 4.92 4.92 0 0 1-.31-1.5 10.19 10.19 0 0 1 .15-1.97zm7.15-.53a3.7 3.7 0 0 0-.27-1.32 2.12 2.12 0 0 0-1.89-1.33 2 2 0 0 0-1.49.72 3.08 3.08 0 0 0-.75 2h4.07zm4.11 6.43a2.67 2.67 0 0 1 .59-.19 3.41 3.41 0 0 0 .79-.19.52.52 0 0 0 .24-.27 4.57 4.57 0 0 0 .08-1.08v-4.02a5.42 5.42 0 0 0-.12-1.26.74.74 0 0 0-.31-.37 3.94 3.94 0 0 0-1.17-.49v-.59l.29-.06 1-.24c.45-.17.74-.28.87-.35l.2-.11.33-.24a5.38 5.38 0 0 0 .89-.9l.66-.05v1.39a2.48 2.48 0 0 0 0 .33v.57a7 7 0 0 1 1.85-1.23 5.3 5.3 0 0 1 2.08-.46 3.62 3.62 0 0 1 2 .57 2.78 2.78 0 0 1 1.14 1.33 10.79 10.79 0 0 1 .27 3l-.05 4a1.09 1.09 0 0 0 .1.47 2.47 2.47 0 0 0 .68.17l.6.12a.59.59 0 0 1 .11.38v.4l-2.41-.17h-1.28l-1.62.11h-.42v-.24a3.94 3.94 0 0 1 0-.47l.86-.12a2.56 2.56 0 0 0 .41-.09c.16-.06.26-.13.28-.19a2.07 2.07 0 0 0 .1-.8v-2.94a9.3 9.3 0 0 0-.33-3.24 1.5 1.5 0 0 0-1.4-.92 3.19 3.19 0 0 0-1.42.35 6.38 6.38 0 0 0-1.52 1.06v1.81l.05 2v.31a7.68 7.68 0 0 0 .16 2.26c.1.17.51.36 1.22.58a1.53 1.53 0 0 1 0 .3 2.31 2.31 0 0 1-.08.46h-.65a7.08 7.08 0 0 1-.81-.08h-1.32c-.66 0-1.6 0-2.85.09a.75.75 0 0 1 0-.26c-.1-.11-.1-.24-.09-.44zm14.13-8.71a7.66 7.66 0 0 0 2.1-1.2 7.56 7.56 0 0 0 1.38-1.92h.69a2.2 2.2 0 0 1 .11.68v2.01h2.36a2.75 2.75 0 0 1 .08.59 2.87 2.87 0 0 1-.09.66 3.51 3.51 0 0 1-.61.07l-.4-.05h-1.45v4.69a12.75 12.75 0 0 0 .05 1.71 1.67 1.67 0 0 0 .29.64 1.46 1.46 0 0 0 .63.14 1.5 1.5 0 0 0 .49-.06 2.4 2.4 0 0 0 .54-.36l.24-.17a3.58 3.58 0 0 1 .48.47v.14a3 3 0 0 1-1.22 1.07 3.64 3.64 0 0 1-1.66.38 2.52 2.52 0 0 1-1.86-.72 3.07 3.07 0 0 1-.71-2.25l.05-2.16v-3.5h-1.27l-.16-.06a.35.35 0 0 1-.07-.21s-.01-.27.01-.59zM105.3 47.62v-.26h1.02c.66-.06 1.4-.1 2.21-.14h1.55a7.61 7.61 0 0 1 2.1.21 2.86 2.86 0 0 1 1.45 1 2.23 2.23 0 0 1 .48 1.39c0 .84-.6 1.54-1.79 2.11v.06a4.34 4.34 0 0 1 1.5.68 3.07 3.07 0 0 1 .89 1.08 2.79 2.79 0 0 1 .23 1.22 2.92 2.92 0 0 1-1.14 2.24 4.69 4.69 0 0 1-3.16 1h-5.11v-.35a.34.34 0 0 1 .19-.09 8.2 8.2 0 0 0 1.2-.3.4.4 0 0 0 .19-.26 8.27 8.27 0 0 0 .1-1.74v-7.66c-.48-.07-.9-.11-1.27-.13a3.55 3.55 0 0 1-.64-.06zm3.34 4.26a4.26 4.26 0 0 0 .89.09 3.09 3.09 0 0 0 2.48-.8 2.33 2.33 0 0 0 .54-2.32 1.53 1.53 0 0 0-.41-.66 1.65 1.65 0 0 0-.72-.44 4.6 4.6 0 0 0-1.51-.25 5.24 5.24 0 0 0-1.34.16v2.86l.06 1.19zm2 5.75a3.46 3.46 0 0 0 1.4-.36 2.76 2.76 0 0 0 .63-.48 2.5 2.5 0 0 0 .55-.84 2.39 2.39 0 0 0 .2-1 3 3 0 0 0-.14-.85 2.18 2.18 0 0 0-.47-.89 2.39 2.39 0 0 0-1-.64 4.26 4.26 0 0 0-1.46-.24 12.85 12.85 0 0 0-1.73 0v2a19.87 19.87 0 0 0 .09 2.35 1 1 0 0 0 .46.63 3 3 0 0 0 1.46.32zm11.75-4.01h-4.03a7.09 7.09 0 0 0-.79 0 1.5 1.5 0 0 0-.08.34v.58a3.27 3.27 0 0 0 .33 1.27 2.47 2.47 0 0 0 .93 1.14 2.89 2.89 0 0 0 1.51.42 3.27 3.27 0 0 0 .76-.12 3.62 3.62 0 0 0 .81-.43l.61-.5v.34a.49.49 0 0 1 0 .12 3.61 3.61 0 0 1-1 .85 4.57 4.57 0 0 1-1.18.53 4.13 4.13 0 0 1-1 .08 3.09 3.09 0 0 1-1.18-.25 2.94 2.94 0 0 1-1.35-1.19 3.83 3.83 0 0 1-.5-2 4.51 4.51 0 0 1 .14-1 5.11 5.11 0 0 1 .5-1.24 2.58 2.58 0 0 1 .6-.73 4.28 4.28 0 0 1 .89-.57 3.36 3.36 0 0 1 1.28-.23 2.55 2.55 0 0 1 1.28.29 2.51 2.51 0 0 1 1 1 2.33 2.33 0 0 1 .33 1.1zm-4.71-.31h.4c.28 0 1.14 0 2.56-.13a1.12 1.12 0 0 0 .42-.07.45.45 0 0 0 .15-.29 1.37 1.37 0 0 0-.17-.59 1.14 1.14 0 0 0-.52-.52 1.73 1.73 0 0 0-.81-.18 1.9 1.9 0 0 0-1.57.74 1.67 1.67 0 0 0-.46 1.04zm5.55 4.49a2.81 2.81 0 0 1 .49-.1 1.43 1.43 0 0 0 .64-.18.69.69 0 0 0 .1-.46v-3.32a1.08 1.08 0 0 0-.14-.67 1.44 1.44 0 0 0-.84-.33v-.31a2.55 2.55 0 0 0 1-.44 3 3 0 0 0 .81-1h.28v1.28a2.21 2.21 0 0 0 .23-.17 5.94 5.94 0 0 1 1-.62 4.92 4.92 0 0 1 1-.33 2.12 2.12 0 0 1 .59-.07 1.92 1.92 0 0 1 1.19.37 1.71 1.71 0 0 1 .65.88 8.43 8.43 0 0 1 .15 2v2.27a3.45 3.45 0 0 0 0 .75.46.46 0 0 0 .22.22 2 2 0 0 1 .95.27v.06a.63.63 0 0 1-.05.21H128v-.17a.27.27 0 0 1 .06-.14 1.88 1.88 0 0 1 .64-.13 1.54 1.54 0 0 0 .34 0l.23-.14a.9.9 0 0 0 .1-.34v-3.37a2 2 0 0 0-.44-1.5 1.61 1.61 0 0 0-1.17-.42 2.72 2.72 0 0 0-1.11.25 3.74 3.74 0 0 0-1 .75v4.35a.31.31 0 0 0 .06.18.43.43 0 0 0 .27.11l.46.12.36.09a.33.33 0 0 1 .22.17v.17h-3.71v-.11a.67.67 0 0 1-.08-.18zm15.19-4.18h-4.03a7.09 7.09 0 0 0-.79 0 1.5 1.5 0 0 0-.08.34v.58a3.27 3.27 0 0 0 .33 1.27 2.53 2.53 0 0 0 .93 1.14 2.89 2.89 0 0 0 1.51.42 3.27 3.27 0 0 0 .76-.12 3.87 3.87 0 0 0 .82-.43l.6-.5.05.34v.12a3.83 3.83 0 0 1-1 .85 4.57 4.57 0 0 1-1.18.53 4.13 4.13 0 0 1-1 .08 3.09 3.09 0 0 1-1.18-.25 2.94 2.94 0 0 1-1.35-1.19 3.83 3.83 0 0 1-.5-2 4.51 4.51 0 0 1 .14-1 5.11 5.11 0 0 1 .5-1.24 2.58 2.58 0 0 1 .6-.73 4.28 4.28 0 0 1 .89-.57 3.36 3.36 0 0 1 1.28-.23 2.55 2.55 0 0 1 1.28.29 2.51 2.51 0 0 1 1 1 2.33 2.33 0 0 1 .33 1.1zm-4.71-.31h.4c.28 0 1.14 0 2.56-.13a1.12 1.12 0 0 0 .42-.07.45.45 0 0 0 .15-.29 1.37 1.37 0 0 0-.17-.59 1.09 1.09 0 0 0-.52-.52 1.73 1.73 0 0 0-.81-.18 1.9 1.9 0 0 0-1.57.74 1.67 1.67 0 0 0-.46 1.04zm8.34-1.81h2.23a1.58 1.58 0 0 1 0 .28v.33a3.11 3.11 0 0 1-.43 0h-.33a8.09 8.09 0 0 0-1.45.08v.42c0 .88.05 1.42.05 1.6v2.17a1.8 1.8 0 0 0 .16.81.65.65 0 0 0 .35.29 3.18 3.18 0 0 0 .77.15l.63.1a1 1 0 0 1 0 .27h-1.75l-2.13.06h-.27v-.26h.18a2.45 2.45 0 0 0 .94-.3.39.39 0 0 0 .12-.25v-.94c0-1.61 0-2.89-.05-3.85a3 3 0 0 0-.67-.08 4.52 4.52 0 0 1-.53 0v-.09a.21.21 0 0 1 .08-.17s.26-.14.71-.35a.77.77 0 0 0 .37-.3.78.78 0 0 0-.03-.47c0-.09 0-.24.05-.46a10.38 10.38 0 0 1 .16-1.08 4.17 4.17 0 0 1 .51-1.13 4.28 4.28 0 0 1 .87-1 2.46 2.46 0 0 1 .84-.46 3.5 3.5 0 0 1 1.07-.15 2 2 0 0 1 1.17.26.54.54 0 0 1 .26.45.52.52 0 0 1-.18.4.6.6 0 0 1-.44.17 1.68 1.68 0 0 1-.69-.16c-.47-.18-.74-.29-.8-.3a1.15 1.15 0 0 0-.33 0 1.35 1.35 0 0 0-.85.29 1.31 1.31 0 0 0-.48.73 11 11 0 0 0-.1 1.94c-.06.37-.06.7-.01 1z" transform="translate(-12.13 -6.87)"/><path class="cls-1" d="M145 52.08v-.25a5.66 5.66 0 0 0 .59-.19 2.62 2.62 0 0 0 .64-.41 3 3 0 0 0 .56-.63h.26v6.43a.71.71 0 0 0 .1.44 1.73 1.73 0 0 0 .65.27c.23.06.4.12.51.16a.22.22 0 0 1 0 .1.27.27 0 0 1-.05.13h-.84l-.93-.06h-1.98a.3.3 0 0 1 0-.11c0-.07 0-.14.16-.18l.86-.2a.6.6 0 0 0 .36-.16 1 1 0 0 0 .14-.57v-3.56a3.11 3.11 0 0 0-.05-.72.71.71 0 0 0-.23-.24 2.72 2.72 0 0 0-.75-.25zm.71-4.38a.64.64 0 0 1 .22-.49.73.73 0 0 1 .52-.2.76.76 0 0 1 .54.23.66.66 0 0 1 .24.49.68.68 0 0 1-.24.49.75.75 0 0 1-1.07 0 .77.77 0 0 1-.2-.52zm5.19 2.03h.26v1.8h2.3v.27a2.36 2.36 0 0 1-.05.35h-2.26a1.83 1.83 0 0 0-.06.49v3.5a2 2 0 0 0 .23 1.16.77.77 0 0 0 .66.3 4.9 4.9 0 0 0 .83-.14 1.47 1.47 0 0 0 .5-.27h.07a.18.18 0 0 1 .13 0 .16.16 0 0 1 0 .12v.06a2.13 2.13 0 0 1-.83.58 3.54 3.54 0 0 1-1.24.18 1.53 1.53 0 0 1-.91-.25 1.14 1.14 0 0 1-.46-.6 6.69 6.69 0 0 1-.1-1.51v-3.03a3.62 3.62 0 0 0 0-.47h-.9a.2.2 0 0 1-.14 0 .13.13 0 0 1 0-.1.24.24 0 0 1 .07-.17 1.61 1.61 0 0 1 .38-.2 1.66 1.66 0 0 0 .51-.35 2.69 2.69 0 0 0 .5-.57 4.87 4.87 0 0 0 .29-.64l.22-.51zm3.84 6.2a7.22 7.22 0 0 0 .47 1 2.49 2.49 0 0 0 .77.75 1.93 1.93 0 0 0 1 .26 1.45 1.45 0 0 0 1-.41 1 1 0 0 0 .34-.73 1.56 1.56 0 0 0-.4-1 3.83 3.83 0 0 0-1.51-.87 3.47 3.47 0 0 1-1.49-.9 1.76 1.76 0 0 1-.07-2.09 2 2 0 0 1 .86-.66 2.75 2.75 0 0 1 1-.23 4.93 4.93 0 0 1 1.07.1 2.7 2.7 0 0 1 .83.28c0 .29.08.71.11 1.27v.27h-.31a2.44 2.44 0 0 0-.77-1.11 1.64 1.64 0 0 0-1-.41 1.1 1.1 0 0 0-.82.31 1.05 1.05 0 0 0-.31.8 1 1 0 0 0 .25.68 3.36 3.36 0 0 0 1.19.67 6.3 6.3 0 0 1 1.36.71 2 2 0 0 1 .63.79 2.28 2.28 0 0 1 .2.88 1.78 1.78 0 0 1-.38 1.09 2.09 2.09 0 0 1-1 .72 3 3 0 0 1-1 .21 5 5 0 0 1-2-.4.39.39 0 0 1-.09-.25v-.25a17.9 17.9 0 0 1-.13-1.35.18.18 0 0 1 0-.14.48.48 0 0 1 .2.01zm16.13-8.28c0 .38.07.59.07.65v.75a4 4 0 0 1 0 .61.24.24 0 0 1-.12 0h-.08a3 3 0 0 0-.91-1.72 2.4 2.4 0 0 0-1.58-.54 2.31 2.31 0 0 0-1.58.54 1.64 1.64 0 0 0-.62 1.26 1.46 1.46 0 0 0 .43 1 9.85 9.85 0 0 0 2.21 1.37 13.38 13.38 0 0 1 1.93 1.14 3 3 0 0 1 .88 1 2.77 2.77 0 0 1 .3 1.3 3.33 3.33 0 0 1-.47 1.7A3 3 0 0 1 170 58a4.67 4.67 0 0 1-2.11.4 6.6 6.6 0 0 1-2.19-.4 2.33 2.33 0 0 1-.76-.35.41.41 0 0 1-.13-.29 1.15 1.15 0 0 1 0-.24c.07-.66.12-1.21.12-1.64A1.37 1.37 0 0 1 165 55a.14.14 0 0 1 .13-.06.14.14 0 0 1 .12.06.36.36 0 0 1 .06.2 2.88 2.88 0 0 0 1 1.86 2.77 2.77 0 0 0 3.18.54 2.08 2.08 0 0 0 .88-.81 2 2 0 0 0 .31-1 1.89 1.89 0 0 0-.48-1.25 6.75 6.75 0 0 0-1.93-1.32 14.5 14.5 0 0 1-1.9-1.11 4.16 4.16 0 0 1-1.06-1.19 2.47 2.47 0 0 1-.26-1.15 2.53 2.53 0 0 1 .93-2 3.61 3.61 0 0 1 2.49-.82 5.07 5.07 0 0 1 1.49.2 3.49 3.49 0 0 1 .91.5zm8.32 8.88v.55a4.08 4.08 0 0 1-1.3 1 3.7 3.7 0 0 1-1.51.28 3.08 3.08 0 0 1-1.71-.5 3.28 3.28 0 0 1-1.17-1.39 4.38 4.38 0 0 1-.41-1.78 3.52 3.52 0 0 1 .5-1.8 3.14 3.14 0 0 1 1.31-1.27 4.41 4.41 0 0 1 2-.42 3.28 3.28 0 0 1 1.8.41.72.72 0 0 1 .35.61.61.61 0 0 1-.18.45.64.64 0 0 1-.45.17 1.35 1.35 0 0 1-.93-.52 2 2 0 0 0-.57-.44 1.18 1.18 0 0 0-.56-.13 1.53 1.53 0 0 0-1.25.62 3.41 3.41 0 0 0-.7 2.2 3.19 3.19 0 0 0 .71 2.18 2.16 2.16 0 0 0 1.66.81 3.05 3.05 0 0 0 1.17-.21 4.65 4.65 0 0 0 1.24-.82zm.56 1.34a4.74 4.74 0 0 0 1.14-.28c.06 0 .09-.12.09-.26v-8.79c0-.25-.07-.4-.15-.46a2.76 2.76 0 0 0-1.11-.41.59.59 0 0 1 0-.17h.44a6.74 6.74 0 0 0 1.46-.55h.38v6a8.94 8.94 0 0 1 .78-.83 4.1 4.1 0 0 1 .94-.56 2.66 2.66 0 0 1 1.05-.21 2.06 2.06 0 0 1 1.7.88 2.46 2.46 0 0 1 .38 1.46v4l.48.11c.32.07.57.13.75.19v.26l-1.8-.05h-1.5a.27.27 0 0 1 0-.13v-.08a.67.67 0 0 1 .44-.2l.51-.12a.3.3 0 0 0 .11-.17c0-.15.05-.88.08-2.18v-.62a5.61 5.61 0 0 0-.22-1.7 1.16 1.16 0 0 0-.54-.71 1.75 1.75 0 0 0-1-.27 1.94 1.94 0 0 0-.86.2 3.17 3.17 0 0 0-.67.49 3.43 3.43 0 0 0-.55.61 1.24 1.24 0 0 0-.1.56v3.33a.84.84 0 0 0 0 .19l1.19.28a1.56 1.56 0 0 1 .28.11v.09a.63.63 0 0 1 0 .14h-3.8V58a.27.27 0 0 1 .1-.13zm15.19-4.25h-4.03a7.26 7.26 0 0 0-.8 0 1.32 1.32 0 0 0-.11.38v.58a3.41 3.41 0 0 0 .32 1.27 2.53 2.53 0 0 0 .93 1.14 2.92 2.92 0 0 0 1.51.42 3.36 3.36 0 0 0 .77-.12 4.11 4.11 0 0 0 .81-.43l.61-.5v.46a3.61 3.61 0 0 1-1 .85 4.63 4.63 0 0 1-1.19.53 4 4 0 0 1-.94.08 3 3 0 0 1-1.18-.25 2.91 2.91 0 0 1-1.36-1.19 3.83 3.83 0 0 1-.49-2 3.94 3.94 0 0 1 .14-1 5.11 5.11 0 0 1 .5-1.24 2.28 2.28 0 0 1 .6-.73 4.25 4.25 0 0 1 .88-.57 3.4 3.4 0 0 1 1.28-.23 2.55 2.55 0 0 1 1.28.29 2.51 2.51 0 0 1 1 1 2.24 2.24 0 0 1 .34 1.1zm-4.72-.31h.4c.29 0 1.14 0 2.57-.13a1.1 1.1 0 0 0 .41-.07.45.45 0 0 0 .15-.29 1.25 1.25 0 0 0-.17-.59 1.12 1.12 0 0 0-.51-.52 1.8 1.8 0 0 0-.82-.18 1.92 1.92 0 0 0-1.57.74 1.72 1.72 0 0 0-.46 1.04zm5.57 4.48a.84.84 0 0 1 .37-.13 1.69 1.69 0 0 0 .52-.13.65.65 0 0 0 .21-.37A19.21 19.21 0 0 0 197 55a15.29 15.29 0 0 0-.11-2.33 1.78 1.78 0 0 0-.48-.18l-.39-.09v-.29a2.54 2.54 0 0 0 .81-.37 5.81 5.81 0 0 0 .86-.92h.21a.18.18 0 0 1 .11 0v1.63a6.75 6.75 0 0 1 1.62-1.14 2.57 2.57 0 0 1 1.1-.22 2.11 2.11 0 0 1 1.17.28 2.7 2.7 0 0 1 .81 1 5.55 5.55 0 0 1 1.37-1 2.77 2.77 0 0 1 1.23-.29 2.09 2.09 0 0 1 1.56.61 2.66 2.66 0 0 1 .62 1.84V57a.68.68 0 0 0 .15.52l.51.16a1.61 1.61 0 0 1 .33.11.13.13 0 0 1 .05.12.49.49 0 0 1-.05.22h-.06l-.85-.05h-2.4v-.13a.35.35 0 0 1 .06-.17 2.38 2.38 0 0 1 .63-.16c.26 0 .43-.12.49-.23a4.24 4.24 0 0 0 .1-1.32c0-1.66 0-2.63-.06-2.89a1.54 1.54 0 0 0-.54-1 1.66 1.66 0 0 0-1.1-.36 2.15 2.15 0 0 0-1 .26 3.75 3.75 0 0 0-.94.8v4.24a.48.48 0 0 0 .15.31 1.67 1.67 0 0 0 .66.17l.38.07a.26.26 0 0 1 .1.22.16.16 0 0 1-.07.15h-3.7a.8.8 0 0 1 0-.19v-.1a2.4 2.4 0 0 1 .69-.19 3.16 3.16 0 0 0 .54-.15.24.24 0 0 0 .08-.11 5 5 0 0 0 .06-.67V54a2.26 2.26 0 0 0-.42-1.52 1.36 1.36 0 0 0-1.06-.48 2.66 2.66 0 0 0-1.2.3 2.81 2.81 0 0 0-1 .79v3.27a2.89 2.89 0 0 0 .11 1.06.62.62 0 0 0 .43.18 1.9 1.9 0 0 1 .7.19.16.16 0 0 1 .08.15.92.92 0 0 1 0 .16c-.64 0-1.07-.07-1.29-.07h-.61L197 58h-1.21a.38.38 0 0 1 0-.1.94.94 0 0 1 0-.11zm19.69-4.17h-4.03a7.26 7.26 0 0 0-.8 0 1.32 1.32 0 0 0-.07.34v.58a3.41 3.41 0 0 0 .32 1.27 2.53 2.53 0 0 0 .93 1.14 3 3 0 0 0 1.51.42 3.36 3.36 0 0 0 .77-.12 4.11 4.11 0 0 0 .81-.43l.61-.5.05.34a.49.49 0 0 1 0 .12 3.61 3.61 0 0 1-1 .85 4.63 4.63 0 0 1-1.19.53 4 4 0 0 1-.94.08 3.09 3.09 0 0 1-1.18-.25 2.91 2.91 0 0 1-1.36-1.19 3.83 3.83 0 0 1-.49-2 3.94 3.94 0 0 1 .14-1 5.11 5.11 0 0 1 .5-1.24 2.28 2.28 0 0 1 .6-.73 4 4 0 0 1 .89-.57 3.31 3.31 0 0 1 1.27-.23 2.55 2.55 0 0 1 1.28.29 2.51 2.51 0 0 1 1 1 2.24 2.24 0 0 1 .34 1.1zm-4.72-.31h.4c.29 0 1.14 0 2.57-.13a1.1 1.1 0 0 0 .41-.07.45.45 0 0 0 .15-.29 1.34 1.34 0 0 0-.16-.59 1.19 1.19 0 0 0-.52-.52 1.8 1.8 0 0 0-.82-.18 1.92 1.92 0 0 0-1.57.74 1.72 1.72 0 0 0-.46 1.04z" transform="translate(-12.13 -6.87)"/><path d="M68 52.41c-1.17-1.65-2.31-3.32-3.46-5a6.16 6.16 0 0 0-2.66-2.52c.6-.21 1.18-.38 1.72-.63a11.09 11.09 0 0 0 1.57-.89 5.43 5.43 0 0 0-.52-9.25 11.84 11.84 0 0 0-5.87-1c.51.18 1 .3 1.53.47a5.59 5.59 0 0 1 3.87 5.29 5.34 5.34 0 0 1-3.95 5.31c-1.07.32-2.19.46-3.38.7a4.32 4.32 0 0 1 2.71 1.64q1.92 2.3 3.7 4.7c.86 1.15 1.61 2.38 2.41 3.57a1.65 1.65 0 0 0 1.58.86c1.46-.08 2.92 0 4.38 0a4.21 4.21 0 0 0 .5 0A7.65 7.65 0 0 1 68 52.41zm-20.29-8.23c3.41 0 4.92 2 5.73 4.9v-9.35c-.36 3.46-2.93 4.05-5.73 4.45zm-2.6 8.63C45 48.54 45 44.27 45 40c0-2.28.15-4.56.23-6.88H39.4a1.43 1.43 0 0 0 .53.23 2 2 0 0 1 1.75 1.91 6.24 6.24 0 0 1 .11 1.05v15c-.05 1.94-.18 3.84-2.66 4.32h8.21c-1.78-.55-2.18-.92-2.23-2.82zm4.95-19.67c3.33.35 5.14 2.81 7.21 5l-1.06-5z" transform="translate(-12.13 -6.87)" fill="#9d9d9c"/></svg>