<?xml version="1.0" encoding="UTF-8"?>
<svg width="86px" height="87px" viewBox="0 0 86 87" version="1.1" xmlns="http://www.w3.org/2000/svg" xmlns:xlink="http://www.w3.org/1999/xlink">
    <!-- Generator: Sketch 49.2 (51160) - http://www.bohemiancoding.com/sketch -->
    <title>Full Refund</title>
    <desc>Created with Sketch.</desc>
    <defs>
        <polygon id="path-1" points="0 86.6329239 85.9091776 86.6329239 85.9091776 0.797446789 0 0.797446789"></polygon>
    </defs>
    <g id="index-1" stroke="none" stroke-width="1" fill="none" fill-rule="evenodd">
        <g id="Desktop" transform="translate(-975.000000, -661.000000)">
            <g id="Full-Refund" transform="translate(975.000000, 661.000000)">
                <path d="M60.2003215,57.4674908 L57.7891065,57.4674908 C57.7891065,41.8721422 50.3866766,29.3680872 37.9882093,24.0163899 L38.9502841,21.8206376 C52.2553682,27.5626376 60.2003215,40.8880046 60.2003215,57.4674908" id="Fill-1" fill="#F9B807"></path>
                <path d="M30.1001607,86.6329239 C1.4549271,86.6329239 0.000964485981,75.5511991 0.000964485981,57.4679697 C0.000964485981,40.8884835 7.94591776,27.5631165 21.2510019,21.8211165 L22.2130766,24.0168688 C9.81460935,29.3661716 2.41217944,41.8726211 2.41217944,57.4679697 C2.41217944,75.057933 3.64189907,84.2384284 30.1001607,84.2384284 L30.1001607,86.6329239 Z" id="Fill-3" fill="#F9B807"></path>
                <mask id="mask-2" fill="white">
                    <use xlink:href="#path-1"></use>
                </mask>
                <g id="Clip-6"></g>
                <path d="M22.9378879,21.7229422 L37.2629159,21.7229422 L37.2629159,16.6154835 L22.9378879,16.6154835 L22.9378879,21.7229422 Z M20.5266729,24.1174376 L39.6741308,24.1174376 L39.6741308,14.2209881 L20.5266729,14.2209881 L20.5266729,24.1174376 Z" id="Fill-5" fill="#F9B807" mask="url(#mask-2)"></path>
                <path d="M22.6051402,14.2205092 L37.5956636,14.2205092 L40.4674206,5.54764679 C40.6723738,4.92747248 40.5711028,4.19475688 40.2070093,3.68712385 C40.0454579,3.46443578 39.7754019,3.19864679 39.3823738,3.1938578 C38.4709346,3.1938578 37.8295514,3.39499541 37.5233271,3.58655505 C36.7517383,4.06784862 35.7848411,4.06545413 35.0132523,3.58416055 C34.707028,3.39499541 34.0656449,3.1938578 33.1855514,3.1938578 C32.3030467,3.1938578 31.6616636,3.39499541 31.3554393,3.58655505 C30.5862617,4.06305963 29.6193645,4.06545413 28.8453645,3.58655505 C28.536729,3.39499541 27.8953458,3.1938578 27.0152523,3.1938578 C26.1351589,3.1938578 25.4937757,3.39499541 25.1875514,3.58655505 C24.4135514,4.06784862 23.4466542,4.06545413 22.6750654,3.58416055 C22.3688411,3.39499541 21.7298692,3.1938578 20.8473645,3.1938578 C20.4254019,3.19864679 20.1529346,3.46443578 19.9937944,3.68712385 C19.6297009,4.19475688 19.5284299,4.92747248 19.7333832,5.54764679 L22.6051402,14.2205092 Z M39.3413832,16.6150046 L20.8570093,16.6150046 L17.442729,6.29472936 C16.9990654,4.95620642 17.2257196,3.42612385 18.0286542,2.30071101 C18.698972,1.3644633 19.6996262,0.816123853 20.775028,0.799362385 C22.0457383,0.799362385 23.1765981,1.07233486 23.9530093,1.55362844 C25.4214393,0.59343578 28.570486,0.59343578 30.118486,1.55362844 C31.5893271,0.595830275 34.7383738,0.59343578 36.288785,1.55362844 C37.0217944,1.07233486 38.1550654,0.799362385 39.351028,0.799362385 C40.5011776,0.816123853 41.5018318,1.3644633 42.1721495,2.30071101 C42.9750841,3.42612385 43.2017383,4.95620642 42.7556636,6.29472936 L39.3413832,16.6150046 Z" id="Fill-7" fill="#F9B807" mask="url(#mask-2)"></path>
                <path d="M30.1001607,34.3958092 C22.5168897,34.3958092 16.3514131,40.5209284 16.3514131,48.049222 C16.3514131,55.5775156 22.5168897,61.7026349 30.1001607,61.7026349 C37.6834318,61.7026349 43.8489084,55.5775156 43.8489084,48.049222 C43.8489084,40.5209284 37.6834318,34.3958092 30.1001607,34.3958092 M30.1001607,64.0971303 C21.1907215,64.0971303 13.9401981,56.8968826 13.9401981,48.049222 C13.9401981,39.199167 21.1907215,32.0013138 30.1001607,32.0013138 C39.0096,32.0013138 46.2601234,39.199167 46.2601234,48.049222 C46.2601234,56.8968826 39.0096,64.0971303 30.1001607,64.0971303" id="Fill-8" fill="#F9B807" mask="url(#mask-2)"></path>
                <path d="M30.1001607,56.467789 C27.0379178,56.467789 24.5471327,54.3103486 24.5471327,51.6596422 L26.9583477,51.6596422 C26.9583477,52.9909817 28.3664972,54.0732936 30.1001607,54.0732936 C31.8338243,54.0732936 33.2419738,52.9909817 33.2419738,51.6596422 C33.2419738,50.1702661 32.0387776,49.2459908 30.1001607,49.2459908 C26.2639178,49.2459908 24.5471327,46.829945 24.5471327,44.437844 C24.5471327,41.7871376 27.0379178,39.6296972 30.1001607,39.6296972 C33.1624037,39.6296972 35.6531888,41.7871376 35.6531888,44.437844 L33.2419738,44.437844 C33.2419738,43.1065046 31.8338243,42.0241927 30.1001607,42.0241927 C28.3664972,42.0241927 26.9583477,43.1065046 26.9583477,44.437844 C26.9583477,45.9703211 28.1036748,46.8514954 30.1001607,46.8514954 C33.367357,46.8514954 35.6531888,48.8293486 35.6531888,51.6596422 C35.6531888,54.3103486 33.1624037,56.467789 30.1001607,56.467789" id="Fill-9" fill="#F9B807" mask="url(#mask-2)"></path>
                <polygon id="Fill-10" fill="#F9B807" mask="url(#mask-2)" points="28.8935888 40.1150615 31.3048037 40.1150615 31.3048037 37.6319697 28.8935888 37.6319697"></polygon>
                <polygon id="Fill-11" fill="#F9B807" mask="url(#mask-2)" points="28.8935888 58.4640798 31.3048037 58.4640798 31.3048037 55.9833826 28.8935888 55.9833826"></polygon>
                <path d="M36.1007103,84.2384284 L50.2931215,84.2384284 L50.2931215,80.9986761 L36.1007103,80.9986761 L36.1007103,84.2384284 Z M33.6870841,86.6329239 L52.7019252,86.6329239 L52.7019252,78.6041807 L33.6870841,78.6041807 L33.6870841,86.6329239 Z" id="Fill-12" fill="#F9B807" mask="url(#mask-2)"></path>
                <path d="M36.1007103,78.6041807 L50.2931215,78.6041807 L50.2931215,75.3644284 L36.1007103,75.3644284 L36.1007103,78.6041807 Z M33.6870841,80.9986761 L52.7019252,80.9986761 L52.7019252,72.969933 L33.6870841,72.969933 L33.6870841,80.9986761 Z" id="Fill-13" fill="#F9B807" mask="url(#mask-2)"></path>
                <path d="M36.1007103,72.969933 L50.2931215,72.969933 L50.2931215,69.7301807 L36.1007103,69.7301807 L36.1007103,72.969933 Z M33.6870841,75.3644284 L52.7019252,75.3644284 L52.7019252,67.3356853 L33.6870841,67.3356853 L33.6870841,75.3644284 Z" id="Fill-14" fill="#F9B807" mask="url(#mask-2)"></path>
                <path d="M52.7019252,84.2384284 L66.8943364,84.2384284 L66.8943364,80.9986761 L52.7019252,80.9986761 L52.7019252,84.2384284 Z M50.2907103,86.6329239 L69.3055514,86.6329239 L69.3055514,78.6041807 L50.2907103,78.6041807 L50.2907103,86.6329239 Z" id="Fill-15" fill="#F9B807" mask="url(#mask-2)"></path>
                <path d="M52.7019252,78.6041807 L66.8943364,78.6041807 L66.8943364,75.3644284 L52.7019252,75.3644284 L52.7019252,78.6041807 Z M50.2907103,80.9986761 L69.3055514,80.9986761 L69.3055514,72.969933 L50.2907103,72.969933 L50.2907103,80.9986761 Z" id="Fill-16" fill="#F9B807" mask="url(#mask-2)"></path>
                <path d="M52.7019252,72.969933 L66.8943364,72.969933 L66.8943364,69.7301807 L52.7019252,69.7301807 L52.7019252,72.969933 Z M50.2907103,75.3644284 L69.3055514,75.3644284 L69.3055514,67.3356853 L50.2907103,67.3356853 L50.2907103,75.3644284 Z" id="Fill-17" fill="#F9B807" mask="url(#mask-2)"></path>
                <path d="M52.7019252,67.3356853 L66.8943364,67.3356853 L66.8943364,64.095933 L52.7019252,64.095933 L52.7019252,67.3356853 Z M50.2907103,69.7301807 L69.3055514,69.7301807 L69.3055514,61.7014376 L50.2907103,61.7014376 L50.2907103,69.7301807 Z" id="Fill-18" fill="#F9B807" mask="url(#mask-2)"></path>
                <path d="M69.3055514,84.2384284 L83.4979626,84.2384284 L83.4979626,80.9986761 L69.3055514,80.9986761 L69.3055514,84.2384284 Z M66.8943364,86.6329239 L85.9091776,86.6329239 L85.9091776,78.6041807 L66.8943364,78.6041807 L66.8943364,86.6329239 Z" id="Fill-19" fill="#F9B807" mask="url(#mask-2)"></path>
                <path d="M69.3055514,78.6041807 L83.4979626,78.6041807 L83.4979626,75.3644284 L69.3055514,75.3644284 L69.3055514,78.6041807 Z M66.8943364,80.9986761 L85.9091776,80.9986761 L85.9091776,72.969933 L66.8943364,72.969933 L66.8943364,80.9986761 Z" id="Fill-20" fill="#F9B807" mask="url(#mask-2)"></path>
                <path d="M69.3055514,72.969933 L83.4979626,72.969933 L83.4979626,69.7301807 L69.3055514,69.7301807 L69.3055514,72.969933 Z M66.8943364,75.3644284 L85.9091776,75.3644284 L85.9091776,67.3356853 L66.8943364,67.3356853 L66.8943364,75.3644284 Z" id="Fill-21" fill="#F9B807" mask="url(#mask-2)"></path>
                <path d="M69.3055514,67.3356853 L83.4979626,67.3356853 L83.4979626,64.095933 L69.3055514,64.095933 L69.3055514,67.3356853 Z M66.8943364,69.7301807 L85.9091776,69.7301807 L85.9091776,61.7014376 L66.8943364,61.7014376 L66.8943364,69.7301807 Z" id="Fill-22" fill="#F9B807" mask="url(#mask-2)"></path>
                <path d="M69.3055514,61.7014376 L83.4979626,61.7014376 L83.4979626,58.4616853 L69.3055514,58.4616853 L69.3055514,61.7014376 Z M66.8943364,64.095933 L85.9091776,64.095933 L85.9091776,56.0671899 L66.8943364,56.0671899 L66.8943364,64.095933 Z" id="Fill-23" fill="#F9B807" mask="url(#mask-2)"></path>
                <path d="M69.3055514,56.0671899 L83.4979626,56.0671899 L83.4979626,52.8274376 L69.3055514,52.8274376 L69.3055514,56.0671899 Z M66.8943364,58.4616853 L85.9091776,58.4616853 L85.9091776,50.4329422 L66.8943364,50.4329422 L66.8943364,58.4616853 Z" id="Fill-24" fill="#F9B807" mask="url(#mask-2)"></path>
                <path d="M69.3055514,50.5359055 L83.4979626,50.5359055 L83.4979626,47.2961532 L69.3055514,47.2961532 L69.3055514,50.5359055 Z M66.8943364,52.9304009 L85.9091776,52.9304009 L85.9091776,44.9016578 L66.8943364,44.9016578 L66.8943364,52.9304009 Z" id="Fill-25" fill="#F9B807" mask="url(#mask-2)"></path>
            </g>
        </g>
    </g>
</svg>