<?xml version="1.0" encoding="UTF-8"?>
<svg width="93px" height="92px" viewBox="0 0 93 92" version="1.1" xmlns="http://www.w3.org/2000/svg" xmlns:xlink="http://www.w3.org/1999/xlink">
    <!-- Generator: Sketch 49.2 (51160) - http://www.bohemiancoding.com/sketch -->
    <title>Fixed Premium Icon</title>
    <desc>Created with Sketch.</desc>
    <defs></defs>
    <g id="index-1" stroke="none" stroke-width="1" fill="none" fill-rule="evenodd">
        <g id="Desktop" transform="translate(-341.000000, -659.000000)" fill="#F9B807">
            <g id="Group-3" transform="translate(231.000000, 617.000000)">
                <g id="Fixed-Premium-Icon" transform="translate(110.000000, 42.000000)">
                    <path d="M42.7411164,80.54496 C41.4687802,80.54496 40.196444,80.06256 39.2271595,79.09536 C38.2867371,78.15936 37.7720302,76.91376 37.7720302,75.58896 C37.7720302,75.46416 37.7768405,75.33936 37.7864612,75.21456 C36.3938664,75.33216 34.965194,74.84016 33.9021078,73.77936 C32.8366164,72.71616 32.3579871,71.29056 32.4638147,69.89856 C31.0664095,70.00176 29.6401422,69.52416 28.5746509,68.46096 C27.6366336,67.52496 27.1195216,66.27936 27.1219267,64.95456 C27.1219267,64.82976 27.1267371,64.70496 27.1339526,64.58256 C25.7557888,64.68816 24.3126853,64.20576 23.2495991,63.14496 C21.3134353,61.21056 21.3134353,58.06416 23.2520043,56.13216 L24.1034353,55.28256 L25.8038922,56.97936 L24.9524612,57.82896 C24.4666164,58.31136 24.2020474,58.95456 24.2020474,59.63856 C24.2020474,60.32256 24.4666164,60.96576 24.9524612,61.44816 C25.9530129,62.44656 27.5765043,62.44416 28.577056,61.44816 L29.4308922,60.59856 L31.1313491,62.29536 L30.2775129,63.14496 C29.2769612,64.14336 29.2769612,65.76816 30.2751078,66.76416 C31.2756595,67.76256 32.901556,67.76016 33.9021078,66.76656 L34.755944,65.91456 L36.4564009,67.61136 L35.6025647,68.46336 C34.6020129,69.45936 34.6020129,71.08416 35.6025647,72.08256 C36.6031164,73.07856 38.2290129,73.07856 39.2295647,72.08256 L40.085806,71.23056 L41.7838578,72.93456 L40.9276164,73.78416 C40.4441767,74.26416 40.1772026,74.90496 40.1772026,75.58896 C40.1772026,76.27296 40.4441767,76.91376 40.9276164,77.39856 C41.9281681,78.39696 43.5540647,78.39456 44.5522112,77.39856 L45.4060474,76.54656 L47.1065043,78.24576 L46.2526681,79.09776 C45.2857888,80.06256 44.0134526,80.54496 42.7411164,80.54496" id="Fill-1"></path>
                    <path d="M47.0406026,32.20752 L47.3821371,32.20752 C49.4481802,32.20752 51.1293957,33.88512 51.1293957,35.94912 L51.1293957,37.47552 C51.1293957,37.83312 51.2688957,38.16912 51.523844,38.42352 L67.5687491,54.44352 L67.9223095,54.09312 C68.1772578,53.83872 68.3167578,53.50272 68.3167578,53.14512 L68.3167578,51.45552 C68.3167578,50.45712 68.7063957,49.51872 69.4135164,48.81072 L73.4301543,44.80512 L56.2187405,27.62352 L42.9469991,27.50832 L33.9324129,36.49632 C32.9318612,37.49472 32.9318612,39.11712 33.9300078,40.11552 C34.4158526,40.60032 35.0604388,40.86432 35.7435078,40.86432 L35.7459129,40.86432 C36.4289819,40.86432 37.0735681,40.60032 37.5570078,40.11552 L44.3901026,33.30192 C45.0996284,32.59632 46.0400509,32.20752 47.0406026,32.20752 Z M18.9217319,44.61072 L22.9335595,48.61872 C23.6406802,49.32432 24.0327233,50.26272 24.0327233,51.26352 L24.0327233,52.95552 C24.0303181,53.30832 24.1746284,53.65392 24.4247664,53.90352 L47.9978612,77.43792 C48.483706,77.92272 49.1282922,78.18912 49.8113612,78.18912 L49.8137664,78.18912 C50.4968353,78.18912 51.1414216,77.92272 51.6248612,77.44032 C52.1083009,76.95552 52.375275,76.31232 52.375275,75.63072 C52.3776802,74.95872 52.1179216,74.32512 51.6513181,73.84752 L40.5947405,62.80752 L42.2951974,61.11072 L53.3277233,72.12432 C53.3397491,72.13632 53.3493698,72.14832 53.3613957,72.15792 L54.8477922,73.64352 C55.848344,74.64192 57.4742405,74.64192 58.4747922,73.64592 C59.4657233,72.65712 59.475344,71.05632 58.5036543,70.05552 L45.9221974,57.49392 L47.6226543,55.79712 L60.1752491,68.32992 C60.1896802,68.34192 60.201706,68.35632 60.2137319,68.36832 L61.6977233,69.84912 C62.698275,70.84752 64.3265767,70.84752 65.3247233,69.85152 C66.3228698,68.85312 66.325275,67.22832 65.3271284,66.23232 L63.0999388,64.00992 C63.0806974,63.99072 63.061456,63.97152 63.0422147,63.95472 L51.2496543,52.18032 L52.9525164,50.48352 L64.7859647,62.29872 C65.7889216,63.25392 67.385956,63.23712 68.3696716,62.25792 C69.3702233,61.25952 69.3702233,59.63712 68.3720767,58.63872 L49.8209819,40.12032 C49.111456,39.40992 48.7242233,38.47152 48.7242233,37.47312 L48.7242233,35.94912 C48.7242233,35.20752 48.1229302,34.60752 47.3821371,34.60752 L47.0406026,34.60752 C46.6822319,34.60752 46.3431026,34.74672 46.0881543,35.00112 L39.2574647,41.81232 C38.3194474,42.75072 37.0711629,43.26432 35.7459129,43.26432 L35.7435078,43.26432 C34.4158526,43.26432 33.1675681,42.74832 32.2295509,41.81232 C30.2957922,39.87792 30.2957922,36.73392 32.231956,34.79952 L39.5749474,27.47712 L36.1307405,27.44832 L18.9217319,44.61072 Z M49.8137664,80.58912 L49.8113612,80.58912 C48.483706,80.58912 47.2378267,80.07072 46.2974043,79.13472 L22.7243095,55.60032 C22.0244043,54.90192 21.6251457,53.93712 21.6275509,52.95312 L21.6275509,51.26352 C21.6275509,50.90592 21.4856457,50.56752 21.2331026,50.31552 L15.5208181,44.61072 L35.1446198,25.03872 L57.2241026,25.23312 L76.8310681,44.80512 L71.1139733,50.50752 C70.8614302,50.75952 70.7219302,51.09792 70.7219302,51.45552 L70.7219302,53.14512 C70.7219302,54.14352 70.3322922,55.08432 69.6227664,55.78992 L69.269206,56.14272 L70.0725336,56.94192 C72.0086974,58.87632 72.0086974,62.02272 70.0701284,63.95472 C69.379844,64.64352 68.5332233,65.08752 67.6433095,65.28432 C68.9348871,67.21152 68.7280422,69.84912 67.0251802,71.54832 C66.0847578,72.48432 64.8388784,72.99792 63.5136284,72.99792 L63.5112233,72.99792 C62.8329647,72.99792 62.1739474,72.86352 61.5702491,72.60672 C61.4115078,73.60752 60.9473095,74.57232 60.1752491,75.34272 C58.7056888,76.80912 56.5314129,77.16672 54.7227233,76.40112 C54.5615767,77.43312 54.0781371,78.38352 53.3253181,79.13712 C52.3873009,80.07312 51.1414216,80.58912 49.8137664,80.58912 Z" id="Fill-3"></path>
                    <path d="M9.10502069,40.7376 L14.2520897,45.8784 L36.9088138,23.2824 L31.7617448,18.1416 L9.10502069,40.7376 Z M14.2520897,49.272 L5.7041069,40.7376 L31.7617448,14.748 L40.3097276,23.2824 L14.2520897,49.272 Z" id="Fill-5"></path>
                    <path d="M55.4541362,23.46408 L78.0988345,46.07208 L83.2483086,40.93608 L60.6036103,18.32808 L55.4541362,23.46408 Z M78.0988345,49.46568 L52.0532224,23.46408 L60.6036103,14.93448 L86.6492224,40.93608 L78.0988345,49.46568 Z" id="Fill-7"></path>
                    <path d="M5.73922241,29.10672 L3.52405862,28.17072 C4.68335172,25.43712 6.11683448,22.80192 7.78602414,20.33472 C9.43837759,17.89392 11.3384638,15.59712 13.4309638,13.50672 C15.5210586,11.42112 17.8228086,9.52512 20.2736793,7.87392 C22.7461966,6.20832 25.3870759,4.77552 28.1289724,3.62112 C30.9165672,2.44512 33.8364466,1.54032 36.8068345,0.93312 C42.896731,-0.31008 49.3498086,-0.31008 55.4421103,0.93312 C58.4100931,1.53792 61.3299724,2.44272 64.1199724,3.62112 L63.1843603,5.83152 C60.5410759,4.71552 57.7727224,3.85872 54.9586707,3.28272 C49.1838517,2.10672 43.0626879,2.10672 37.2902741,3.28272 C34.4738172,3.85872 31.707869,4.71552 29.0645845,5.83152 C26.4694034,6.92592 23.9632138,8.28432 21.6205759,9.86352 C19.2971793,11.42832 17.1132828,13.22592 15.1314207,15.20592 C13.1471534,17.18592 11.3456793,19.36272 9.77991207,21.67632 C8.19730862,24.01632 6.83838621,26.51472 5.73922241,29.10672" id="Fill-9"></path>
                    <path d="M36.8080371,91.32624 C33.8376491,90.71904 30.9153647,89.81424 28.1277698,88.63824 C25.3882784,87.48144 22.744994,86.05104 20.2724767,84.38544 C17.8240112,82.73184 15.5222612,80.83584 13.4321664,78.75024 C11.3396664,76.66464 9.44198534,74.36784 7.78722672,71.92464 L9.77870948,70.58064 C11.3492871,72.89664 13.1507612,75.07584 15.1326233,77.05344 C17.1144853,79.03104 19.2983819,80.82864 21.6193733,82.39584 C23.9644164,83.97504 26.4682009,85.33104 29.0657871,86.42784 C31.7066664,87.54384 34.4750198,88.40064 37.2890716,88.97664 L36.8080371,91.32624 Z" id="Fill-11"></path>
                    <path d="M78.8162974,78.75096 L77.1158405,77.05416 C79.0952974,75.07896 80.8967716,72.90216 82.4697543,70.58136 C84.0523578,68.24376 85.4112802,65.74296 86.510444,63.15096 C87.6288491,60.51576 88.4874957,57.75336 89.0623319,54.94536 C89.6540043,52.06536 89.9522457,49.09896 89.9522457,46.13016 L92.3574181,46.13016 C92.3574181,49.25976 92.0423405,52.38936 91.4194009,55.42536 C90.8108922,58.39176 89.9041422,61.30536 88.7256078,64.08696 C87.5663147,66.82056 86.1328319,69.45816 84.4636422,71.92536 C82.8040733,74.37336 80.9039871,76.67016 78.8162974,78.75096" id="Fill-13"></path>
                    <path d="M63.1838793,5.838 L62.0775,5.358 L63.0155172,3.15 L64.1218966,3.63 L65.2282759,4.086 L64.2902586,6.294 L63.1838793,5.838 Z M67.9942241,8.214 L66.96,7.614 L68.1625862,5.55 L70.2550862,6.75 L69.0284483,8.814 L67.9942241,8.214 Z M72.4918966,11.19 L71.5298276,10.47 L72.972931,8.55 L73.935,9.27 L74.897069,9.99 L73.4539655,11.91 L72.4918966,11.19 Z M76.5806897,14.67 L75.7148276,13.83 L77.3743966,12.126 L79.1061207,13.782 L77.4465517,15.51 L76.5806897,14.67 Z M80.2125,18.63 L79.4668966,17.694 L81.3188793,16.206 L82.8341379,18.054 L80.9581034,19.566 L80.2125,18.63 Z M83.3392241,22.998 L82.6898276,21.99 L84.7342241,20.718 L86.0089655,22.758 L83.964569,24.03 L83.3392241,22.998 Z M85.8887069,27.726 L85.3836207,26.646 L87.5723276,25.638 L88.5825,27.798 L86.3937931,28.83 L85.8887069,27.726 Z" id="Fill-15"></path>
                    <path d="M0.120980172,50.81448 L0.000721551724,49.63848 L2.40589397,49.39848 L2.64641121,51.77448 L0.241238793,52.01448 L0.120980172,50.81448 Z M1.03494569,56.40648 L0.770376724,55.25448 L3.12744569,54.70248 L3.65658362,57.05448 L1.32356638,57.58248 L1.03494569,56.40648 Z M2.64641121,61.85448 L2.2375319,60.72648 L4.49839397,59.91048 L5.31615259,62.16648 L3.05529052,62.98248 L2.64641121,61.85448 Z M4.90727328,67.03848 L4.35408362,65.98248 L6.49468707,64.87848 L7.04787672,65.95848 L7.60106638,67.01448 L5.43641121,68.11848 L4.90727328,67.03848 Z M7.79348017,71.93448 L7.1200319,70.92648 L9.09227328,69.58248 L10.4632216,71.57448 L8.46692845,72.91848 L7.79348017,71.93448 Z" id="Fill-17"></path>
                    <path d="M76.2680172,77.91072 L77.9756897,76.20672 L79.6593103,77.91072 L78.8175,78.75072 L77.9756897,79.59072 L76.2680172,77.91072 Z M72.1311207,81.34272 L74.0312069,79.87872 L75.5224138,81.77472 L73.6223276,83.23872 L72.1311207,81.34272 Z M67.6093966,84.27072 L69.6778448,83.04672 L70.9285345,85.08672 L68.8600862,86.33472 L67.6093966,84.27072 Z M62.775,86.62272 L64.9877586,85.63872 L65.9498276,87.82272 L63.7611207,88.80672 L62.775,86.62272 Z M57.6760345,88.35072 L59.985,87.65472 L60.6825,89.93472 L59.5280172,90.29472 L58.3735345,90.63072 L57.6760345,88.35072 Z" id="Fill-19"></path>
                </g>
            </g>
        </g>
    </g>
</svg>