<?xml version="1.0" encoding="UTF-8"?>
<svg width="88px" height="89px" viewBox="0 0 88 89" version="1.1" xmlns="http://www.w3.org/2000/svg" xmlns:xlink="http://www.w3.org/1999/xlink">
    <!-- Generator: Sketch 49.2 (51160) - http://www.bohemiancoding.com/sketch -->
    <title>10 Year Term</title>
    <desc>Created with Sketch.</desc>
    <defs>
        <polygon id="path-1" points="0.00048 0.711198198 87.432 0.711198198 87.432 68.7646874 0.00048 68.7646874"></polygon>
        <polygon id="path-3" points="0 88.2890423 87.432 88.2890423 87.432 0.802042342 0 0.802042342"></polygon>
    </defs>
    <g id="index-1" stroke="none" stroke-width="1" fill="none" fill-rule="evenodd">
        <g id="Desktop" transform="translate(-661.000000, -668.000000)">
            <g id="10-Year-Term" transform="translate(661.000000, 668.000000)">
                <path d="M38.32968,68.6299045 C38.85768,68.6299045 39.38568,68.7333369 39.88248,68.9402018 C40.94328,69.380391 41.77128,70.2535532 42.15288,71.3359856 C42.51768,72.3606883 43.44168,72.4400667 43.71528,72.4400667 C43.99128,72.4400667 44.91528,72.3606883 45.28008,71.3335802 C45.66408,70.2535532 46.48968,69.380391 47.54808,68.9402018 C48.60648,68.4976072 49.80888,68.5288775 50.84328,69.024391 C51.82728,69.4838234 52.53528,68.8896883 52.72968,68.6972559 C52.92408,68.502418 53.52168,67.790418 53.05608,66.8090126 C52.56408,65.7722829 52.53288,64.5671748 52.97208,63.5039856 C53.41128,62.4456072 54.28008,61.6133369 55.36248,61.2308775 C56.38488,60.8628505 56.46408,59.9391748 56.46408,59.6601477 C56.46408,59.3859315 56.38248,58.4598505 55.36248,58.0966342 C54.28008,57.7117694 53.40888,56.8794991 52.96968,55.8187153 C52.53288,54.7579315 52.56408,53.5528234 53.05608,52.5184991 C53.52168,51.5346883 52.92408,50.8250937 52.72968,50.6302559 C52.53528,50.4330126 51.82488,49.8388775 50.84568,50.3031207 C49.80888,50.7986342 48.60648,50.8250937 47.54808,50.3873099 C46.48968,49.9471207 45.66408,49.0739586 45.28008,47.9915261 C44.91528,46.964418 43.99128,46.8850396 43.71528,46.8850396 C43.44168,46.8850396 42.51768,46.964418 42.15288,47.9915261 C41.77128,49.0739586 40.94328,49.9471207 39.88248,50.3873099 C38.82408,50.8299045 37.62168,50.7962288 36.58728,50.3055261 C35.60328,49.8340667 34.89768,50.4330126 34.70328,50.6302559 C34.50888,50.8226883 33.91128,51.5346883 34.37688,52.5184991 C34.86888,53.5528234 34.90008,54.7579315 34.46328,55.8187153 C34.02408,56.8794991 33.15288,57.7117694 32.07288,58.0966342 C31.04808,58.4598505 30.96888,59.3859315 30.96888,59.6601477 C30.96888,59.9391748 31.04568,60.8628505 32.07048,61.2308775 C33.15048,61.6133369 34.02168,62.4456072 34.46088,63.5039856 C34.90008,64.5671748 34.86888,65.7722829 34.37688,66.8090126 C33.91128,67.790418 34.50888,68.502418 34.70328,68.6972559 C34.89768,68.8920937 35.60808,69.4838234 36.58488,69.024391 C37.13448,68.7622018 37.73208,68.6299045 38.32968,68.6299045 M43.71528,74.8454721 C41.97768,74.8454721 40.47528,73.7846883 39.89208,72.1417964 C39.73128,71.6919856 39.40488,71.3456072 38.96568,71.1627964 C38.52648,70.9775802 38.04888,70.9847964 37.61688,71.1964721 C36.04488,71.9469586 34.23528,71.6318505 33.00648,70.3978775 C31.77528,69.1663099 31.46328,67.3526342 32.20968,65.7746883 C32.41368,65.3465261 32.42568,64.8678505 32.24328,64.4252559 C32.06088,63.9850667 31.71528,63.6555261 31.26648,63.494364 C29.62728,62.9098505 28.56648,61.4040667 28.56888,59.6601477 C28.56888,57.9186342 29.62968,56.4152559 31.26648,55.8331477 C31.71528,55.6695802 32.06328,55.3400396 32.24328,54.8998505 C32.42568,54.4596613 32.41368,53.9809856 32.20968,53.550418 C31.46328,51.9748775 31.77528,50.1587964 33.00648,48.9272288 C34.23288,47.6932559 36.04488,47.3757423 37.61688,48.133445 C38.04648,48.3354991 38.52648,48.3475261 38.96568,48.1647153 C39.40488,47.9819045 39.73128,47.6331207 39.89208,47.1881207 C40.47528,45.5428234 41.97528,44.4796342 43.71528,44.4796342 C45.45768,44.4796342 46.95768,45.5428234 47.54088,47.1881207 C47.69928,47.6355261 48.03048,47.9819045 48.46728,48.1647153 C48.90648,48.3499315 49.38648,48.3330937 49.81608,48.133445 C51.38088,47.3757423 53.19768,47.6932559 54.42648,48.9296342 C55.65768,50.1587964 55.96968,51.9748775 55.22328,53.550418 C55.01928,53.9809856 55.00728,54.4596613 55.18728,54.8998505 C55.36968,55.3400396 55.71768,55.6695802 56.16648,55.8331477 C57.80328,56.4152559 58.86408,57.9186342 58.86408,59.6601477 C58.86408,61.4040667 57.80568,62.9098505 56.16648,63.494364 C55.71768,63.6555261 55.37208,63.9850667 55.18728,64.4252559 C55.00728,64.8678505 55.01928,65.3465261 55.22328,65.7746883 C55.96968,67.3526342 55.65768,69.1663099 54.42888,70.3978775 C53.19528,71.6318505 51.38328,71.9469586 49.81368,71.1940667 C49.38648,70.9896072 48.90648,70.9775802 48.46728,71.1627964 C48.03048,71.3456072 47.69928,71.6895802 47.54088,72.139391 C46.95768,73.7846883 45.45528,74.8454721 43.71528,74.8454721" id="Fill-1" fill="#F9B807"></path>
                <path d="M43.71552,55.1887396 C41.25312,55.1887396 39.25152,57.1972532 39.25152,59.6627937 C39.25152,62.1307396 41.25312,64.1392532 43.71552,64.1392532 C46.17792,64.1392532 48.18192,62.1307396 48.18192,59.6627937 C48.18192,57.1972532 46.17792,55.1887396 43.71552,55.1887396 M43.71552,66.5446586 C39.93072,66.5446586 36.85152,63.4585234 36.85152,59.6627937 C36.85152,55.8694694 39.93072,52.7833342 43.71552,52.7833342 C47.50272,52.7833342 50.58192,55.8694694 50.58192,59.6627937 C50.58192,63.4585234 47.50272,66.5446586 43.71552,66.5446586" id="Fill-3" fill="#F9B807"></path>
                <polygon id="Fill-5" fill="#F9B807" points="37.30656 88.2890423 37.30656 69.8419883 39.70656 69.8419883 39.70656 83.9905829 43.71456 81.5250423 47.72496 83.9905829 47.72496 69.8419883 50.12496 69.8419883 50.12496 88.2866369 43.71456 84.3489883"></polygon>
                <g id="Group-9" transform="translate(0.000000, 0.090844)">
                    <mask id="mask-2" fill="white">
                        <use xlink:href="#path-1"></use>
                    </mask>
                    <g id="Clip-8"></g>
                    <polygon id="Fill-7" fill="#F9B807" mask="url(#mask-2)" points="87.43248 68.7646874 58.69008 68.7646874 58.69008 66.359282 85.03248 66.359282 85.03248 3.11636306 2.40048 3.11636306 2.40048 66.359282 28.53168 66.359282 28.53168 68.7646874 0.00048 68.7646874 0.00048 0.710957658 87.43248 0.710957658"></polygon>
                </g>
                <polygon id="Fill-10" fill="#F9B807" points="80.62968 21.1772694 78.22968 21.1772694 78.22968 16.1427559 72.12408 16.1427559 72.12408 10.0234045 66.97848 10.0234045 66.97848 7.6179991 74.52408 7.6179991 74.52408 13.7373505 80.62968 13.7373505"></polygon>
                <polygon id="Fill-12" fill="#F9B807" points="74.52432 62.0362072 65.06352 62.0362072 65.06352 59.6308018 72.12432 59.6308018 72.12432 53.5114505 78.22992 53.5114505 78.22992 48.7968559 80.62992 48.7968559 80.62992 55.9168559 74.52432 55.9168559"></polygon>
                <polygon id="Fill-14" fill="#F9B807" points="20.79264 62.0362072 12.90864 62.0362072 12.90864 55.9168559 6.80064 55.9168559 6.80064 48.3903423 9.20064 48.3903423 9.20064 53.5114505 15.30864 53.5114505 15.30864 59.6308018 20.79264 59.6308018"></polygon>
                <polygon id="Fill-16" fill="#F9B807" points="9.2016 20.768591 6.8016 20.768591 6.8016 13.737591 12.9072 13.737591 12.9072 7.61823964 19.3752 7.61823964 19.3752 10.023645 15.3072 10.023645 15.3072 16.1429964 9.2016 16.1429964"></polygon>
                <mask id="mask-4" fill="white">
                    <use xlink:href="#path-3"></use>
                </mask>
                <g id="Clip-19"></g>
                <polygon id="Fill-18" fill="#F9B807" mask="url(#mask-4)" points="6.8016 10.0243667 9.7008 10.0243667 9.7008 7.61896126 6.8016 7.61896126"></polygon>
                <polygon id="Fill-20" fill="#F9B807" mask="url(#mask-4)" points="77.7312 10.0243667 80.6304 10.0243667 80.6304 7.61896126 77.7312 7.61896126"></polygon>
                <polygon id="Fill-21" fill="#F9B807" mask="url(#mask-4)" points="6.8016 62.0364477 9.7008 62.0364477 9.7008 59.6310423 6.8016 59.6310423"></polygon>
                <polygon id="Fill-22" fill="#F9B807" mask="url(#mask-4)" points="77.7312 62.0364477 80.6304 62.0364477 80.6304 59.6310423 77.7312 59.6310423"></polygon>
                <polygon id="Fill-23" fill="#F9B807" mask="url(#mask-4)" points="30.8784 25.1182856 54.9792 25.1182856 54.9792 22.7128802 30.8784 22.7128802"></polygon>
                <polygon id="Fill-24" fill="#F9B807" mask="url(#mask-4)" points="19.5336 31.5046369 66.3216 31.5046369 66.3216 29.0992315 19.5336 29.0992315"></polygon>
                <polygon id="Fill-25" fill="#F9B807" mask="url(#mask-4)" points="25.14 37.8885829 60.7128 37.8885829 60.7128 35.4831775 25.14 35.4831775"></polygon>
            </g>
        </g>
    </g>
</svg>