<?xml version="1.0" encoding="UTF-8"?>
<svg width="167px" height="44px" viewBox="0 0 167 44" version="1.1" xmlns="http://www.w3.org/2000/svg" xmlns:xlink="http://www.w3.org/1999/xlink">
    <!-- Generator: Sketch 49.2 (51160) - http://www.bohemiancoding.com/sketch -->
    <title>Page 1</title>
    <desc>Created with Sketch.</desc>
    <defs>
        <polygon id="path-1" points="0 44 167 44 167 0 0 0"></polygon>
    </defs>
    <g id="index-1" stroke="none" stroke-width="1" fill="none" fill-rule="evenodd">
        <g id="Desktop" transform="translate(-232.000000, -11.000000)">
            <g id="Top-Nav">
                <g id="Page-1" transform="translate(232.000000, 11.000000)">
                    <path d="M22.7931358,14.1627728 C24.2217455,14.1627728 25.3373298,14.4737559 26.1398885,15.096176 C26.9419876,15.7181421 27.3437267,16.6510913 27.3437267,17.8959316 L27.3437267,17.9699319 C27.3437267,19.0903789 26.9608335,19.9861009 26.1964262,20.6584599 C25.4310995,21.3303649 24.3348208,21.6658635 22.9057514,21.6658635 L18.4549059,21.6658635 L27.3561374,35 L34,35 L27.5694176,25.7145451 C29.2485396,25.0957569 30.6086607,24.1233106 31.6497807,22.7985682 C32.6895218,21.4738257 33.209852,19.759106 33.209852,17.6544089 L33.209852,17.5799546 C33.209852,15.1043478 32.4578553,13.122682 30.9538621,11.6372272 C29.1731561,9.87892439 26.6156321,9 23.2817498,9 L10,9 L13.446498,14.1627728 L22.7931358,14.1627728 Z" id="Fill-1" fill="#FFFFFF"></path>
                    <mask id="mask-2" fill="white">
                        <use xlink:href="#path-1"></use>
                    </mask>
                    <g id="Clip-4"></g>
                    <path d="M4.4494175,39.5497546 L39.5505825,39.5497546 L39.5505825,4.45024545 L4.4494175,4.45024545 L4.4494175,39.5497546 Z M0,44 L44,44 L44,0 L0,0 L0,44 Z" id="Fill-3" fill="#F9B807" mask="url(#mask-2)"></path>
                    <path d="M55.7124992,26.4793726 C55.6576168,25.9529461 55.538327,25.4580692 55.356444,24.9951925 C55.1736539,24.5327664 54.9269099,24.1284817 54.6166656,23.7841411 C54.3055142,23.4393498 53.9358517,23.1711788 53.5072248,22.9805294 C53.0776907,22.7898801 52.589192,22.6947808 52.0412752,22.6947808 C51.0180133,22.6947808 50.1734595,23.0445299 49.5067064,23.7431267 C48.8404069,24.4417235 48.4335515,25.3539557 48.2879544,26.4793726 L55.7124992,26.4793726 Z M52.4249984,35 C51.3835936,35 50.411132,34.8183648 49.5067064,34.4550945 C48.6027344,34.0927256 47.8175987,33.5843274 47.1508456,32.9312521 C46.483639,32.277726 45.959308,31.4930441 45.5751312,30.5758541 C45.1923152,29.6600162 45,28.6481776 45,27.540789 L45,27.4858027 C45,26.4514287 45.1737187,25.4806045 45.5207024,24.5733301 C45.8672326,23.6660557 46.3561848,22.8719089 46.986652,22.1908897 C47.6166656,21.5107719 48.3605261,20.9753313 49.2195944,20.5850185 C50.0777555,20.1947057 51.0275384,20 52.0684896,20 C53.2196592,20 54.2284067,20.2082269 55.0960928,20.6255822 C55.9633253,21.0433881 56.6849608,21.6058712 57.2605456,22.3139329 C57.8361304,23.0215438 58.2697466,23.8427331 58.5613944,24.7775007 C58.8534958,25.7122683 59,26.696163 59,27.7309877 C59,27.8770169 58.9954643,28.0266518 58.9863928,28.1803431 C58.9768678,28.3349358 58.9632605,28.4935849 58.9455712,28.6567411 L48.3147152,28.6567411 C48.4979589,29.8371443 48.9678611,30.739461 49.726236,31.3654938 C50.4837038,31.9919774 51.4017365,32.3047685 52.4794272,32.3047685 C53.301756,32.3047685 54.0138664,32.1600913 54.6166656,31.8689342 C55.2190112,31.5786785 55.8127389,31.1523091 56.3973952,30.589826 L58.342772,32.3047685 C57.6483509,33.1214507 56.82194,33.7749767 55.8630856,34.2648959 C54.9042312,34.7548151 53.7575974,35 52.4249984,35 Z" id="Fill-5" fill="#FFFFFF" mask="url(#mask-2)"></path>
                    <path d="M61.8441092,23.4782364 L60,23.4782364 L60,20.7338882 L61.8441092,20.7338882 L61.8441092,19.7009335 C61.8441092,18.1069621 62.2382664,16.920144 63.0274923,16.1413789 C63.7980355,15.3801597 64.8898284,15 66.3028707,15 C66.8897777,15 67.3946636,15.0359915 67.8166169,15.1084242 C68.2381145,15.1813069 68.6327275,15.2717355 69,15.3801597 L69,18.1524013 C68.669637,18.0430773 68.3533998,17.9575976 68.0508329,17.8937127 C67.7478102,17.8307277 67.4128905,17.7987853 67.0460736,17.7987853 C65.7615311,17.7987853 65.1190319,18.5235632 65.1190319,19.972669 L65.1190319,20.7604319 L68.9726596,20.7604319 L68.9726596,23.4782364 L65.1746241,23.4782364 L65.1746241,35 L61.8441092,35 L61.8441092,23.4782364 Z" id="Fill-6" fill="#FFFFFF" mask="url(#mask-2)"></path>
                    <path d="M76.1559553,35 C74.5104087,35 73.239015,34.4899714 72.3435906,33.4694536 C71.4477122,32.4493964 71,31.0759591 71,29.3505237 L71,20 L74.3183374,20 L74.3183374,28.3484351 C74.3183374,29.4993396 74.5880545,30.3848635 75.1274886,31.0068495 C75.6669228,31.6283749 76.4302131,31.9384464 77.4173594,31.9384464 C78.386343,31.9384464 79.1732448,31.6186995 79.7767028,30.9782842 C80.3797066,30.3387904 80.6816626,29.4435912 80.6816626,28.2931474 L80.6816626,20 L84,20 L84,34.6936143 L80.6816626,34.6936143 L80.6816626,32.4116165 C80.4432763,32.764536 80.1830947,33.0934976 79.8997555,33.3998833 C79.6159623,33.7058083 79.2872162,33.9799429 78.9121551,34.2209049 C78.537094,34.4618669 78.1261614,34.6521485 77.6784492,34.7912891 C77.2298289,34.9304297 76.7226336,35 76.1559553,35" id="Fill-7" fill="#FFFFFF" mask="url(#mask-2)"></path>
                    <path d="M86,20.3063857 L89.3186756,20.3063857 L89.3186756,22.5883835 C89.7931613,21.8830052 90.3879711,21.2757625 91.1008348,20.7652732 C91.8141525,20.2552446 92.7281618,20 93.8433167,20 C95.4892599,20 96.759701,20.5104893 97.6560022,21.5305464 C98.5518494,22.5510643 99,23.9240409 99,25.6494763 L99,35 L95.6813244,35 L95.6813244,26.6511042 C95.6813244,25.5011211 95.4116168,24.6155973 94.8722015,23.9936112 C94.3332402,23.3720859 93.5695225,23.0610929 92.5824107,23.0610929 C91.6125528,23.0610929 90.8270406,23.3813005 90.2231497,24.021255 C89.620167,24.6612096 89.3186756,25.5568695 89.3186756,26.7068526 L89.3186756,35 L86,35 L86,20.3063857 Z" id="Fill-8" fill="#FFFFFF" mask="url(#mask-2)"></path>
                    <path d="M107.540936,33.0244644 C108.089484,33.0244644 108.618473,32.9109229 109.129723,32.6838401 C109.640973,32.4576957 110.088544,32.131616 110.471526,31.7065395 C110.854964,31.2809938 111.160167,30.7761568 111.388956,30.1901517 C111.616835,29.605085 111.731457,28.9529257 111.731457,28.234612 L111.731457,28.1783105 C111.731457,27.4604661 111.616835,26.8036149 111.388956,26.2086955 C111.160167,25.6133068 110.854964,25.1080006 110.471526,24.6923077 C110.088544,24.2766148 109.640973,23.9552269 109.129723,23.7286132 C108.618473,23.5019996 108.089484,23.3889274 107.540936,23.3889274 C106.975559,23.3889274 106.441567,23.4973078 105.938959,23.7145379 C105.437261,23.9322371 104.994693,24.248464 104.611711,24.6641569 C104.228273,25.0793807 103.926709,25.5856252 103.707472,26.1805447 C103.488689,26.7754642 103.379071,27.4416989 103.379071,28.1783105 L103.379071,28.234612 C103.379071,28.9529257 103.488689,29.6097768 103.707472,30.2042271 C103.926709,30.7996157 104.228273,31.3053911 104.611711,31.7206148 C104.994693,32.1363078 105.437261,32.4576957 105.938959,32.6838401 C106.441567,32.9109229 106.975559,33.0244644 107.540936,33.0244644 M106.730396,36 C105.888471,36 105.059737,35.8296879 104.244193,35.490002 C103.429104,35.1493778 102.710443,34.6492326 102.087755,33.9876896 C101.465068,33.3270851 100.96155,32.5139972 100.576293,31.5503027 C100.191946,30.5875466 100,29.4812217 100,28.234612 L100,28.1783105 C100,26.9317009 100.187853,25.8258451 100.562648,24.8626198 C100.937898,23.8989254 101.437322,23.0867758 102.060465,22.4252329 C102.682698,21.7641592 103.401813,21.2630756 104.216447,20.9233897 C105.031991,20.5832347 105.869367,20.4133917 106.730396,20.4133917 C107.921645,20.4133917 108.915034,20.6780089 109.711474,21.2067741 C110.508369,21.7355392 111.162896,22.3501642 111.675966,23.0487723 L111.675966,15 L115,15 L115,35.6879957 L111.675966,35.6879957 L111.675966,33.1943073 C111.144703,33.9693916 110.486082,34.6299962 109.697829,35.1779977 C108.910486,35.7259992 107.921645,36 106.730396,36" id="Fill-9" fill="#FFFFFF" mask="url(#mask-2)"></path>
                    <path d="M126.824589,28.6377119 C126.40806,28.4733656 125.915595,28.3358051 125.345396,28.2268462 C124.775197,28.1169794 124.173994,28.061592 123.54044,28.061592 C122.509229,28.061592 121.70403,28.2631659 121.124844,28.6654056 C120.545659,29.0671913 120.25674,29.6160714 120.25674,30.310684 L120.25674,30.3656174 C120.25674,31.060684 120.523642,31.5904964 121.057445,31.9559625 C121.591248,32.3218826 122.24682,32.5048426 123.025508,32.5048426 C123.567849,32.5048426 124.06975,32.4317494 124.531211,32.285109 C124.992672,32.1389225 125.394822,31.9332627 125.739458,31.6681295 C126.082746,31.4034504 126.349647,31.0829298 126.539714,30.7083838 C126.72978,30.3338378 126.824589,29.9175242 126.824589,29.4603511 L126.824589,28.6377119 Z M126.74326,34.6980932 L126.74326,32.9157082 C126.25439,33.501362 125.63072,33.9948547 124.870455,34.3966404 C124.110639,34.7984262 123.187716,35 122.102136,35 C121.432635,35 120.78605,34.903753 120.161931,34.7117131 C119.537363,34.5201271 118.994573,34.2368341 118.533112,33.8618341 C118.0721,33.4872881 117.700505,33.0205811 117.420572,32.4630751 C117.139741,31.905569 117,31.2613499 117,30.5299637 L117,30.4754843 C117,29.6710048 117.144684,28.9713983 117.434502,28.3775726 C117.72342,27.783293 118.126469,27.2898002 118.64185,26.8961864 C119.15768,26.5039346 119.772363,26.2111077 120.487246,26.0186138 C121.20168,25.8270278 121.975425,25.7307809 122.808482,25.7307809 C123.676137,25.7307809 124.413487,25.7861683 125.020082,25.8955811 C125.625778,26.0054479 126.209457,26.1516344 126.770669,26.3345944 L126.770669,26.0599274 C126.770669,25.0547821 126.466922,24.2870763 125.861226,23.7568099 C125.254632,23.2265436 124.382034,22.9614104 123.241636,22.9614104 C122.4279,22.9614104 121.70403,23.0440375 121.070925,23.2079298 C120.43737,23.37273 119.795279,23.5920097 119.143751,23.8662228 L118.248237,21.2062651 C119.044449,20.840799 119.858634,20.5479722 120.691242,20.3286925 C121.52295,20.1094128 122.527651,20 123.703546,20 C125.838311,20 127.421748,20.5343523 128.453408,21.6039649 C129.484619,22.6735775 130,24.1776634 130,26.1148608 L130,34.6980932 L126.74326,34.6980932 Z" id="Fill-10" fill="#FFFFFF" mask="url(#mask-2)"></path>
                    <path d="M139.472939,33.0244644 C140.040084,33.0244644 140.575847,32.9109229 141.079773,32.6838401 C141.5837,32.4576957 142.022589,32.1414688 142.39826,31.7346902 C142.773476,31.3288501 143.071374,30.8277665 143.291501,30.232847 C143.511173,29.6374584 143.621236,28.9712237 143.621236,28.234612 L143.621236,28.1783105 C143.621236,27.4604661 143.511173,26.8036149 143.291501,26.2086955 C143.071374,25.6133068 142.773476,25.1080006 142.39826,24.6923077 C142.022589,24.2766148 141.5837,23.9552269 141.079773,23.7286132 C140.575847,23.5019996 140.040084,23.3889274 139.472939,23.3889274 C138.904885,23.3889274 138.364119,23.5019996 137.852006,23.7286132 C137.338983,23.9552269 136.890543,24.2813066 136.505776,24.7063831 C136.121009,25.1319288 135.814014,25.637235 135.585701,26.2227708 C135.356023,26.8083067 135.241867,27.4604661 135.241867,28.1783105 L135.241867,28.234612 C135.241867,28.9529257 135.356023,29.6097768 135.585701,30.2042271 C135.814014,30.7996157 136.121009,31.3053911 136.505776,31.7206148 C136.890543,32.1363078 137.338983,32.4576957 137.852006,32.6838401 C138.364119,32.9109229 138.904885,33.0244644 139.472939,33.0244644 M140.241563,36 C139.051333,36 138.061672,35.7349136 137.274855,35.2061485 C136.487584,34.6773833 135.836754,34.0636967 135.324187,33.3641502 L135.324187,35.6879957 L132,35.6879957 L132,15 L135.324187,15 L135.324187,23.2186153 C135.855402,22.4252329 136.514872,21.7594674 137.302598,21.2208494 C138.089415,20.6822315 139.06907,20.4133917 140.241563,20.4133917 C141.102514,20.4133917 141.935721,20.5832347 142.741639,20.9233897 C143.547558,21.2630756 144.266608,21.7641592 144.898335,22.4252329 C145.530063,23.0867758 146.038537,23.8989254 146.42285,24.8626198 C146.808071,25.8258451 147,26.9317009 147,28.1783105 L147,28.234612 C147,29.4812217 146.812165,30.5875466 146.436949,31.5503027 C146.061278,32.5139972 145.557806,33.3270851 144.926079,33.9876896 C144.293896,34.6492326 143.570298,35.1493778 142.755738,35.490002 C141.940723,35.8296879 141.102514,36 140.241563,36" id="Fill-11" fill="#FFFFFF" mask="url(#mask-2)"></path>
                    <polygon id="Fill-12" fill="#FFFFFF" mask="url(#mask-2)" points="148 35 151 35 151 15 148 15"></polygon>
                    <path d="M163.712499,26.4793726 C163.657617,25.9529461 163.538327,25.4580692 163.356444,24.9951925 C163.173654,24.5327664 162.927363,24.1284817 162.616666,23.7841411 C162.305514,23.4393498 161.935852,23.1711788 161.506771,22.9805294 C161.077237,22.7898801 160.589192,22.6947808 160.041275,22.6947808 C159.018013,22.6947808 158.173459,23.0445299 157.50716,23.7431267 C156.839953,24.4417235 156.434005,25.3539557 156.287954,26.4793726 L163.712499,26.4793726 Z M160.424545,35 C159.383594,35 158.411132,34.8183648 157.50716,34.4550945 C156.602734,34.0927256 155.817145,33.5843274 155.150846,32.9312521 C154.484093,32.277726 153.958854,31.4930441 153.575131,30.5758541 C153.191862,29.6600162 153,28.6481776 153,27.540789 L153,27.4858027 C153,26.4514287 153.173719,25.4806045 153.520702,24.5733301 C153.867233,23.6660557 154.356185,22.8719089 154.986652,22.1908897 C155.616212,21.5107719 156.360526,20.9753313 157.219594,20.5850185 C158.077755,20.1947057 159.027538,20 160.06849,20 C161.219206,20 162.228407,20.2082269 163.096093,20.6255822 C163.963325,21.0433881 164.684961,21.6058712 165.260092,22.3139329 C165.835677,23.0215438 166.269293,23.8427331 166.561394,24.7775007 C166.853496,25.7122683 167,26.696163 167,27.7309877 C167,27.8770169 166.995011,28.0266518 166.986393,28.1803431 C166.976868,28.3349358 166.963261,28.4935849 166.945118,28.6567411 L156.314715,28.6567411 C156.497959,29.8371443 156.967861,30.739461 157.726236,31.3654938 C158.483704,31.9919774 159.401737,32.3047685 160.479881,32.3047685 C161.301756,32.3047685 162.013866,32.1600913 162.616666,31.8689342 C163.219465,31.5786785 163.812285,31.1523091 164.397395,30.589826 L166.342318,32.3047685 C165.648351,33.1214507 164.821486,33.7749767 163.863086,34.2648959 C162.904231,34.7548151 161.757597,35 160.424545,35 Z" id="Fill-13" fill="#FFFFFF" mask="url(#mask-2)"></path>
                </g>
            </g>
        </g>
    </g>
</svg>